<mxfile host="65bd71144e">
    <diagram name="Big_Picture" id="sLw63CcBg5hc4U3ndPCc">
        <mxGraphModel dx="1018" dy="574" grid="1" gridSize="10" guides="1" tooltips="1" connect="1" arrows="1" fold="1" page="1" pageScale="1" pageWidth="827" pageHeight="1169" math="0" shadow="0">
            <root>
                <mxCell id="0"/>
                <mxCell id="1" parent="0"/>
                <UserObject label="&lt;div style=&quot;font-size: 1px&quot;&gt;&lt;p style=&quot;text-align:left;margin-left:0;margin-right:0;margin-top:0px;margin-bottom:0px;text-indent:0;vertical-align:top;direction:ltr;&quot;&gt;&lt;font style=&quot;font-size:16.93px;font-family:Calibri;color:#000000;direction:ltr;letter-spacing:0px;line-height:120%;opacity:1&quot;&gt;Organisation&lt;br/&gt;&lt;/font&gt;&lt;/p&gt;&lt;/div&gt;" tags="Hintergrund" id="X-0UwtzgqucG9rMq7sj0-30">
                    <mxCell style="verticalAlign=top;align=left;overflow=width;vsdxID=134;fillColor=#FFFFFF;gradientColor=none;shape=stencil(nZBLDoAgDERP0z3SIyjew0SURgSD+Lu9kMZoXLhwN9O+tukAlrNpJg1SzDH4QW/URgNYgZTkjA4UkwJUgGXng+6DX1zLfmoymdXo17xh5zmRJ6Q42BWCfc2oJfdAr+Yv+AP9Cb7OJ3H/2JG1HNGz/84klThPVCc=);dashed=1;strokeColor=#000000;points=[[0.5,0,0],[1,0.5,0],[0.5,0.5,0],[0.5,0.5,0]];labelBackgroundColor=none;rounded=0;html=1;whiteSpace=wrap;" parent="1" vertex="1">
                        <mxGeometry x="22" y="20" width="468" height="800" as="geometry"/>
                    </mxCell>
                </UserObject>
                <UserObject label="&lt;div style=&quot;font-size: 1px&quot;&gt;&lt;p style=&quot;text-align:left;margin-left:0;margin-right:0;margin-top:0px;margin-bottom:0px;text-indent:0;vertical-align:top;direction:ltr;&quot;&gt;&lt;font style=&quot;font-size:16.93px;font-family:Calibri;color:#000000;direction:ltr;letter-spacing:0px;line-height:120%;opacity:1&quot;&gt;Push-Anbieter&lt;br/&gt;&lt;/font&gt;&lt;/p&gt;&lt;/div&gt;" tags="Hintergrund" id="X-0UwtzgqucG9rMq7sj0-2">
                    <mxCell style="verticalAlign=top;align=left;overflow=width;vsdxID=399;fillColor=#FFFFFF;gradientColor=none;shape=stencil(nZBLDoAgDERP0z3SIyjew0SURgSD+Lu9kMZoXLhwN9O+tukAlrNpJg1SzDH4QW/URgNYgZTkjA4UkwJUgGXng+6DX1zLfmoymdXo17xh5zmRJ6Q42BWCfc2oJfdAr+Yv+AP9Cb7OJ3H/2JG1HNGz/84klThPVCc=);dashed=1;strokeColor=#000000;points=[[0.5,0,0],[1,0.5,0],[0.5,0.5,0],[0.5,0.5,0]];labelBackgroundColor=none;rounded=0;html=1;whiteSpace=wrap;" parent="1" vertex="1">
                        <mxGeometry x="22" y="700" width="300" height="99" as="geometry"/>
                    </mxCell>
                </UserObject>
                <UserObject label="&lt;div style=&quot;font-size: 1px&quot;&gt;&lt;p style=&quot;text-align:left;margin-left:0;margin-right:0;margin-top:0px;margin-bottom:0px;text-indent:0;vertical-align:top;direction:ltr;&quot;&gt;&lt;font style=&quot;font-size:16.93px;font-family:Calibri;color:#000000;direction:ltr;letter-spacing:0px;line-height:120%;opacity:1&quot;&gt;VZD-Anbieter&lt;br/&gt;&lt;/font&gt;&lt;/p&gt;&lt;/div&gt;" tags="Hintergrund" id="X-0UwtzgqucG9rMq7sj0-3">
                    <mxCell style="verticalAlign=top;align=left;overflow=width;vsdxID=337;fillColor=#FFFFFF;gradientColor=none;shape=stencil(nZBLDoAgDERP0z3SIyjew0SURgSD+Lu9kMZoXLhwN9O+tukAlrNpJg1SzDH4QW/URgNYgZTkjA4UkwJUgGXng+6DX1zLfmoymdXo17xh5zmRJ6Q42BWCfc2oJfdAr+Yv+AP9Cb7OJ3H/2JG1HNGz/84klThPVCc=);dashed=1;strokeColor=#000000;points=[];labelBackgroundColor=none;rounded=0;html=1;whiteSpace=wrap;" parent="1" vertex="1">
                        <mxGeometry x="595" y="20" width="864" height="367" as="geometry"/>
                    </mxCell>
                </UserObject>
                <UserObject label="&lt;div style=&quot;font-size: 1px&quot;&gt;&lt;p style=&quot;text-align:left;margin-left:0;margin-right:0;margin-top:0px;margin-bottom:0px;text-indent:0;vertical-align:bottom;direction:ltr;&quot;&gt;&lt;font style=&quot;font-size:16.93px;font-family:Calibri;color:#000000;direction:ltr;letter-spacing:0px;line-height:120%;opacity:1&quot;&gt;TI-Messenger-Anbieter (B)&lt;br/&gt;&lt;/font&gt;&lt;/p&gt;&lt;/div&gt;" tags="Hintergrund" id="X-0UwtzgqucG9rMq7sj0-4">
                    <mxCell style="verticalAlign=bottom;align=left;overflow=width;vsdxID=331;fillColor=#FFFFFF;gradientColor=none;shape=stencil(nZBLDoAgDERP0z3SIyjew0SURgSD+Lu9kMZoXLhwN9O+tukAlrNpJg1SzDH4QW/URgNYgZTkjA4UkwJUgGXng+6DX1zLfmoymdXo17xh5zmRJ6Q42BWCfc2oJfdAr+Yv+AP9Cb7OJ3H/2JG1HNGz/84klThPVCc=);dashed=1;strokeColor=#000000;points=[];labelBackgroundColor=none;rounded=0;html=1;whiteSpace=wrap;" parent="1" vertex="1">
                        <mxGeometry x="1264" y="430" width="195" height="604" as="geometry"/>
                    </mxCell>
                </UserObject>
                <UserObject label="&lt;div style=&quot;font-size: 1px&quot;&gt;&lt;p style=&quot;text-align:left;margin-left:0;margin-right:0;margin-top:0px;margin-bottom:0px;text-indent:0;vertical-align:bottom;direction:ltr;&quot;&gt;&lt;font style=&quot;font-size:16.93px;font-family:Calibri;color:#000000;direction:ltr;letter-spacing:0px;line-height:120%;opacity:1&quot;&gt;TI-Messenger-Anbieter (A)&lt;br/&gt;&lt;/font&gt;&lt;/p&gt;&lt;/div&gt;" tags="Hintergrund" id="X-0UwtzgqucG9rMq7sj0-5">
                    <mxCell style="verticalAlign=bottom;align=left;overflow=width;vsdxID=330;fillColor=#FFFFFF;gradientColor=none;shape=stencil(nZBLDoAgDERP0z3SIyjew0SURgSD+Lu9kMZoXLhwN9O+tukAlrNpJg1SzDH4QW/URgNYgZTkjA4UkwJUgGXng+6DX1zLfmoymdXo17xh5zmRJ6Q42BWCfc2oJfdAr+Yv+AP9Cb7OJ3H/2JG1HNGz/84klThPVCc=);dashed=1;strokeColor=#000000;points=[];labelBackgroundColor=none;rounded=0;html=1;whiteSpace=wrap;" parent="1" vertex="1">
                        <mxGeometry x="595" y="430" width="488" height="604" as="geometry"/>
                    </mxCell>
                </UserObject>
                <UserObject label="&lt;div style=&quot;font-size: 1px&quot;&gt;&lt;font style=&quot;font-size:16.93px;font-family:Calibri;color:#000000;direction:ltr;letter-spacing:0px;line-height:120%;opacity:1&quot;&gt;VZD-FHIR-Directory&lt;br/&gt;&lt;/font&gt;&lt;/div&gt;" tags="Hintergrund" id="X-0UwtzgqucG9rMq7sj0-6">
                    <mxCell style="verticalAlign=top;align=center;overflow=width;vsdxID=108;fillColor=#fcebdd;gradientColor=none;shape=stencil(nZBLDoAgDERP0z3SIyjew0SURgSD+Lu9kMZoXLhwN9O+tukAlrNpJg1SzDH4QW/URgNYgZTkjA4UkwJUgGXng+6DX1zLfmoymdXo17xh5zmRJ6Q42BWCfc2oJfdAr+Yv+AP9Cb7OJ3H/2JG1HNGz/84klThPVCc=);strokeColor=#000000;strokeWidth=2;points=[];labelBackgroundColor=none;rounded=0;html=1;whiteSpace=wrap;" parent="1" vertex="1">
                        <mxGeometry x="610" y="52" width="655" height="327" as="geometry"/>
                    </mxCell>
                </UserObject>
                <UserObject label="&lt;div style=&quot;font-size: 1px&quot;&gt;&lt;font style=&quot;font-size:16.93px;font-family:Calibri;color:#000000;direction:ltr;letter-spacing:0px;line-height:120%;opacity:1&quot;&gt;     TI-Messenger-Fachdienst&lt;br/&gt;&lt;/font&gt;&lt;/div&gt;" tags="Hintergrund" id="X-0UwtzgqucG9rMq7sj0-7">
                    <mxCell style="verticalAlign=top;align=center;overflow=width;vsdxID=110;fillColor=#dbeef3;gradientColor=none;shape=stencil(nZBLDoAgDERP0z3SIyjew0SURgSD+Lu9kMZoXLhwN9O+tukAlrNpJg1SzDH4QW/URgNYgZTkjA4UkwJUgGXng+6DX1zLfmoymdXo17xh5zmRJ6Q42BWCfc2oJfdAr+Yv+AP9Cb7OJ3H/2JG1HNGz/84klThPVCc=);strokeColor=#000000;strokeWidth=2;points=[];labelBackgroundColor=none;rounded=0;html=1;whiteSpace=wrap;" parent="1" vertex="1">
                        <mxGeometry x="610" y="447" width="457" height="549" as="geometry"/>
                    </mxCell>
                </UserObject>
                <UserObject label="&lt;div style=&quot;font-size: 1px&quot;&gt;&lt;p style=&quot;text-align:left;margin-left:0;margin-right:0;margin-top:0px;margin-bottom:0px;text-indent:0;vertical-align:top;direction:ltr;&quot;&gt;&lt;font style=&quot;font-size:15.52px;font-family:Calibri;color:#000000;direction:ltr;letter-spacing:0px;line-height:120%;opacity:1&quot;&gt;&lt;br&gt;&lt;/font&gt;&lt;/p&gt;&lt;/div&gt;" tags="Hintergrund" id="X-0UwtzgqucG9rMq7sj0-8">
                    <mxCell style="verticalAlign=top;align=left;overflow=width;vsdxID=579;fillColor=#d8d8d8;gradientColor=none;shape=stencil(nZBLDoAgDERP0z3SIyjew0SURgSD+Lu9kMZoXLhwN9O+tukAlrNpJg1SzDH4QW/URgNYgZTkjA4UkwJUgGXng+6DX1zLfmoymdXo17xh5zmRJ6Q42BWCfc2oJfdAr+Yv+AP9Cb7OJ3H/2JG1HNGz/84klThPVCc=);strokeColor=#000000;strokeWidth=2;points=[];labelBackgroundColor=none;rounded=0;html=1;whiteSpace=wrap;" parent="1" vertex="1">
                        <mxGeometry x="759" y="790" width="272" height="170" as="geometry"/>
                    </mxCell>
                </UserObject>
                <UserObject label="&lt;div style=&quot;font-size: 1px&quot;&gt;&lt;p style=&quot;text-align:left;margin-left:0;margin-right:0;margin-top:0px;margin-bottom:0px;text-indent:0;vertical-align:top;direction:ltr;&quot;&gt;&lt;font style=&quot;font-size:15.52px;font-family:Calibri;color:#000000;direction:ltr;letter-spacing:0px;line-height:120%;opacity:1&quot;&gt;&lt;br&gt;&lt;/font&gt;&lt;/p&gt;&lt;/div&gt;" tags="Hintergrund" id="X-0UwtzgqucG9rMq7sj0-9">
                    <mxCell style="verticalAlign=top;align=left;overflow=width;vsdxID=578;fillColor=#d8d8d8;gradientColor=none;shape=stencil(nZBLDoAgDERP0z3SIyjew0SURgSD+Lu9kMZoXLhwN9O+tukAlrNpJg1SzDH4QW/URgNYgZTkjA4UkwJUgGXng+6DX1zLfmoymdXo17xh5zmRJ6Q42BWCfc2oJfdAr+Yv+AP9Cb7OJ3H/2JG1HNGz/84klThPVCc=);strokeColor=#000000;strokeWidth=2;points=[];labelBackgroundColor=none;rounded=0;html=1;whiteSpace=wrap;" parent="1" vertex="1">
                        <mxGeometry x="753" y="796" width="272" height="170" as="geometry"/>
                    </mxCell>
                </UserObject>
                <UserObject label="&lt;div style=&quot;font-size: 1px&quot;&gt;&lt;p style=&quot;text-align:left;margin-left:0;margin-right:0;margin-top:0px;margin-bottom:0px;text-indent:0;vertical-align:top;direction:ltr;&quot;&gt;&lt;font style=&quot;font-size:15.52px;font-family:Calibri;color:#000000;direction:ltr;letter-spacing:0px;line-height:120%;opacity:1&quot;&gt;Messenger-Service&lt;br/&gt;&lt;/font&gt;&lt;/p&gt;&lt;/div&gt;" tags="Hintergrund" id="X-0UwtzgqucG9rMq7sj0-10">
                    <mxCell style="verticalAlign=top;align=left;overflow=width;vsdxID=111;fillColor=#d8d8d8;gradientColor=none;shape=stencil(nZBLDoAgDERP0z3SIyjew0SURgSD+Lu9kMZoXLhwN9O+tukAlrNpJg1SzDH4QW/URgNYgZTkjA4UkwJUgGXng+6DX1zLfmoymdXo17xh5zmRJ6Q42BWCfc2oJfdAr+Yv+AP9Cb7OJ3H/2JG1HNGz/84klThPVCc=);strokeColor=#000000;strokeWidth=2;points=[];labelBackgroundColor=none;rounded=0;html=1;whiteSpace=wrap;" parent="1" vertex="1">
                        <mxGeometry x="747" y="803" width="272" height="170" as="geometry"/>
                    </mxCell>
                </UserObject>
                <UserObject label="&lt;div style=&quot;font-size: 1px&quot;&gt;&lt;font style=&quot;font-size:14.11px;font-family:Arial;color:#000000;direction:ltr;letter-spacing:0px;line-height:120%;opacity:1&quot;&gt;Registrierungs-&lt;br/&gt;Dienst&lt;br/&gt;&lt;/font&gt;&lt;/div&gt;" tags="Hintergrund" id="X-0UwtzgqucG9rMq7sj0-11">
                    <mxCell style="verticalAlign=middle;align=center;overflow=width;vsdxID=113;fillColor=#f2f2f2;gradientColor=none;shape=stencil(nZBLDoAgDERP0z3SIyjew0SURgSD+Lu9kMZoXLhwN9O+tukAlrNpJg1SzDH4QW/URgNYgZTkjA4UkwJUgGXng+6DX1zLfmoymdXo17xh5zmRJ6Q42BWCfc2oJfdAr+Yv+AP9Cb7OJ3H/2JG1HNGz/84klThPVCc=);strokeColor=#000000;strokeWidth=2;spacingTop=-1;spacingBottom=-1;spacingLeft=-1;spacingRight=-1;points=[[0.5,0,0],[1,0.5,0],[0.5,0.5,0],[0.5,0.5,0]];labelBackgroundColor=none;rounded=0;html=1;whiteSpace=wrap;" parent="1" vertex="1">
                        <mxGeometry x="635" y="480" width="195" height="61" as="geometry"/>
                    </mxCell>
                </UserObject>
                <UserObject label="&lt;div style=&quot;font-size: 1px&quot;&gt;&lt;font style=&quot;font-size:14.11px;font-family:Arial;color:#000000;direction:ltr;letter-spacing:0px;line-height:120%;opacity:1&quot;&gt;TI-Messenger- Client&lt;br/&gt;&lt;/font&gt;&lt;/div&gt;" tags="Hintergrund" id="X-0UwtzgqucG9rMq7sj0-12">
                    <mxCell style="verticalAlign=middle;align=center;overflow=width;vsdxID=114;fillColor=#ebf1df;gradientColor=none;shape=stencil(nZBLDoAgDERP0z3SIyjew0SURgSD+Lu9kMZoXLhwN9O+tukAlrNpJg1SzDH4QW/URgNYgZTkjA4UkwJUgGXng+6DX1zLfmoymdXo17xh5zmRJ6Q42BWCfc2oJfdAr+Yv+AP9Cb7OJ3H/2JG1HNGz/84klThPVCc=);strokeColor=#000000;strokeWidth=2;spacingTop=-1;spacingBottom=-1;spacingLeft=-1;spacingRight=-1;points=[[0.5,0,0],[1,0.5,0],[0.5,0.5,0],[0.5,0.5,0]];labelBackgroundColor=none;rounded=0;html=1;whiteSpace=wrap;" parent="1" vertex="1">
                        <mxGeometry x="118" y="908" width="104" height="61" as="geometry"/>
                    </mxCell>
                </UserObject>
                <UserObject label="&lt;div style=&quot;font-size: 1px&quot;&gt;&lt;font style=&quot;font-size:16.93px;font-family:Calibri;color:#000000;direction:ltr;letter-spacing:0px;line-height:120%;opacity:1&quot;&gt;TI-Messenger-&lt;br/&gt;Fachdienst &lt;br/&gt;&lt;/font&gt;&lt;/div&gt;" tags="Hintergrund" id="X-0UwtzgqucG9rMq7sj0-13">
                    <mxCell style="verticalAlign=top;align=center;overflow=width;vsdxID=120;fillColor=#dbeef3;gradientColor=none;shape=stencil(nZBLDoAgDERP0z3SIyjew0SURgSD+Lu9kMZoXLhwN9O+tukAlrNpJg1SzDH4QW/URgNYgZTkjA4UkwJUgGXng+6DX1zLfmoymdXo17xh5zmRJ6Q42BWCfc2oJfdAr+Yv+AP9Cb7OJ3H/2JG1HNGz/84klThPVCc=);strokeColor=#000000;strokeWidth=2;points=[];labelBackgroundColor=none;rounded=0;html=1;whiteSpace=wrap;" parent="1" vertex="1">
                        <mxGeometry x="1292" y="447" width="142" height="549" as="geometry"/>
                    </mxCell>
                </UserObject>
                <UserObject label="&lt;div style=&quot;font-size: 1px&quot;&gt;&lt;p style=&quot;text-align:center;margin-left:0;margin-right:0;margin-top:0px;margin-bottom:0px;text-indent:0;vertical-align:middle;direction:ltr;&quot;&gt;&lt;font style=&quot;font-size:14.11px;font-family:Arial;color:#000000;direction:ltr;letter-spacing:0px;line-height:120%;opacity:1&quot;&gt;Push-&lt;br/&gt;Gateway&lt;br/&gt;&lt;/font&gt;&lt;/p&gt;&lt;/div&gt;" tags="Hintergrund" id="X-0UwtzgqucG9rMq7sj0-21">
                    <mxCell style="verticalAlign=middle;align=center;overflow=width;vsdxID=127;fillColor=#ebf1df;gradientColor=none;shape=stencil(nZBLDoAgDERP0z3SIyjew0SURgSD+Lu9kMZoXLhwN9O+tukAlrNpJg1SzDH4QW/URgNYgZTkjA4UkwJUgGXng+6DX1zLfmoymdXo17xh5zmRJ6Q42BWCfc2oJfdAr+Yv+AP9Cb7OJ3H/2JG1HNGz/84klThPVCc=);strokeColor=#000000;strokeWidth=2;spacingTop=-1;spacingBottom=-1;spacingLeft=-1;spacingRight=-1;points=[[0.5,0,0],[1,0.5,0],[0.5,0.5,0],[0.5,0.5,0]];labelBackgroundColor=none;rounded=0;html=1;whiteSpace=wrap;" parent="1" vertex="1">
                        <mxGeometry x="410" y="729" width="71" height="61" as="geometry"/>
                    </mxCell>
                </UserObject>
                <UserObject label="&lt;div style=&quot;font-size: 1px&quot;&gt;&lt;font style=&quot;font-size:14.11px;font-family:Arial;color:#000000;direction:ltr;letter-spacing:0px;line-height:120%;opacity:1&quot;&gt;FHIR-Directory&lt;br/&gt;&lt;/font&gt;&lt;/div&gt;" tags="Hintergrund" id="X-0UwtzgqucG9rMq7sj0-29">
                    <mxCell style="verticalAlign=middle;align=center;overflow=width;vsdxID=133;fillColor=#f2f2f2;gradientColor=none;shape=stencil(nZE9DsIwDIVP4xWFWAydS7kAJ4iIIRYhqdLwe3rSukhRB4Zmst/7YkvPgO3gTE+g1ZBTvNKTbXaAe9Cag6PEuVSAHWB7jokuKd6Dlb43hdRqUsjKn+1Ia2XS6cgfEg2bTVO93czIkFt8jMtfgiqx3vMwJf1BUM+hQn/mKvgPuhJcrC/FFI8Ex95LurW/jLNIcgrsvg==);strokeColor=#000000;strokeWidth=2;spacingTop=2;spacingBottom=2;spacingLeft=3;spacingRight=3;points=[[0.5,0,0],[1,0.5,0],[0.5,0.5,0],[0.5,0.5,0]];labelBackgroundColor=none;rounded=1;html=1;whiteSpace=wrap;" parent="1" vertex="1">
                        <mxGeometry x="856" y="242" width="158" height="48" as="geometry"/>
                    </mxCell>
                </UserObject>
                <UserObject label="&lt;div style=&quot;font-size: 1px&quot;&gt;&lt;p style=&quot;text-align:left;margin-left:0;margin-right:0;margin-top:0px;margin-bottom:0px;text-indent:0;vertical-align:top;direction:ltr;&quot;&gt;&lt;/p&gt;&lt;/div&gt;" tags="Hintergrund" id="X-0UwtzgqucG9rMq7sj0-31">
                    <mxCell style="verticalAlign=top;align=left;overflow=width;vsdxID=563;fillColor=#d8d8d8;gradientColor=none;shape=stencil(nZBLDoAgDERP0z3SIyjew0SURgSD+Lu9kMZoXLhwN9O+tukAlrNpJg1SzDH4QW/URgNYgZTkjA4UkwJUgGXng+6DX1zLfmoymdXo17xh5zmRJ6Q42BWCfc2oJfdAr+Yv+AP9Cb7OJ3H/2JG1HNGz/84klThPVCc=);strokeColor=#000000;strokeWidth=2;points=[];labelBackgroundColor=none;rounded=0;html=1;whiteSpace=wrap;" parent="1" vertex="1">
                        <mxGeometry x="759" y="560" width="272" height="170" as="geometry"/>
                    </mxCell>
                </UserObject>
                <UserObject label="&lt;div style=&quot;font-size: 1px&quot;&gt;&lt;p style=&quot;text-align:left;margin-left:0;margin-right:0;margin-top:0px;margin-bottom:0px;text-indent:0;vertical-align:top;direction:ltr;&quot;&gt;&lt;/p&gt;&lt;/div&gt;" tags="Hintergrund" id="X-0UwtzgqucG9rMq7sj0-32">
                    <mxCell style="verticalAlign=top;align=left;overflow=width;vsdxID=562;fillColor=#d8d8d8;gradientColor=none;shape=stencil(nZBLDoAgDERP0z3SIyjew0SURgSD+Lu9kMZoXLhwN9O+tukAlrNpJg1SzDH4QW/URgNYgZTkjA4UkwJUgGXng+6DX1zLfmoymdXo17xh5zmRJ6Q42BWCfc2oJfdAr+Yv+AP9Cb7OJ3H/2JG1HNGz/84klThPVCc=);strokeColor=#000000;strokeWidth=2;points=[];labelBackgroundColor=none;rounded=0;html=1;whiteSpace=wrap;" parent="1" vertex="1">
                        <mxGeometry x="753" y="566" width="272" height="170" as="geometry"/>
                    </mxCell>
                </UserObject>
                <UserObject label="&lt;div style=&quot;font-size: 1px&quot;&gt;&lt;p style=&quot;text-align:left;margin-left:0;margin-right:0;margin-top:0px;margin-bottom:0px;text-indent:0;vertical-align:top;direction:ltr;&quot;&gt;&lt;font style=&quot;font-size:15.52px;font-family:Calibri;color:#000000;direction:ltr;letter-spacing:0px;line-height:120%;opacity:1&quot;&gt;Messenger-Service&lt;br/&gt;&lt;/font&gt;&lt;/p&gt;&lt;/div&gt;" tags="Hintergrund" id="X-0UwtzgqucG9rMq7sj0-33">
                    <mxCell style="verticalAlign=top;align=left;overflow=width;vsdxID=145;fillColor=#d8d8d8;gradientColor=none;shape=stencil(nZBLDoAgDERP0z3SIyjew0SURgSD+Lu9kMZoXLhwN9O+tukAlrNpJg1SzDH4QW/URgNYgZTkjA4UkwJUgGXng+6DX1zLfmoymdXo17xh5zmRJ6Q42BWCfc2oJfdAr+Yv+AP9Cb7OJ3H/2JG1HNGz/84klThPVCc=);strokeColor=#000000;strokeWidth=2;points=[];labelBackgroundColor=none;rounded=0;html=1;whiteSpace=wrap;" parent="1" vertex="1">
                        <mxGeometry x="747" y="572" width="272" height="170" as="geometry"/>
                    </mxCell>
                </UserObject>
                <UserObject label="&lt;div style=&quot;font-size: 1px&quot;&gt;&lt;font style=&quot;font-size:14.11px;font-family:Arial;color:#000000;direction:ltr;letter-spacing:0px;line-height:120%;opacity:1&quot;&gt;&lt;br/&gt;Messenger-&lt;br/&gt;Proxy&lt;br/&gt;&lt;br/&gt;&lt;/font&gt;&lt;/div&gt;" tags="Hintergrund" id="X-0UwtzgqucG9rMq7sj0-57">
                    <mxCell style="verticalAlign=middle;align=center;overflow=width;vsdxID=177;fillColor=#f2f2f2;gradientColor=none;shape=stencil(nZBLDoAgDERP0z3SIyjew0SURgSD+Lu9kMZoXLhwN9O+tukAlrNpJg1SzDH4QW/URgNYgZTkjA4UkwJUgGXng+6DX1zLfmoymdXo17xh5zmRJ6Q42BWCfc2oJfdAr+Yv+AP9Cb7OJ3H/2JG1HNGz/84klThPVCc=);strokeColor=#000000;strokeWidth=2;spacingTop=-1;spacingBottom=-1;spacingLeft=-1;spacingRight=-1;points=[[0.5,0,0],[1,0.5,0],[0.5,0.5,0],[0.5,0.5,0]];labelBackgroundColor=none;rounded=0;html=1;whiteSpace=wrap;" parent="1" vertex="1">
                        <mxGeometry x="925" y="584" width="84" height="70" as="geometry"/>
                    </mxCell>
                </UserObject>
                <UserObject label="&lt;div style=&quot;font-size: 1px&quot;&gt;&lt;font style=&quot;font-size:14.11px;font-family:Arial;color:#000000;direction:ltr;letter-spacing:0px;line-height:120%;opacity:1&quot;&gt;TI-Messenger- Client&lt;br/&gt;&lt;/font&gt;&lt;/div&gt;" tags="Hintergrund" id="X-0UwtzgqucG9rMq7sj0-58">
                    <mxCell style="verticalAlign=middle;align=center;overflow=width;vsdxID=261;fillColor=#ebf1df;gradientColor=none;shape=stencil(nZBLDoAgDERP0z3SIyjew0SURgSD+Lu9kMZoXLhwN9O+tukAlrNpJg1SzDH4QW/URgNYgZTkjA4UkwJUgGXng+6DX1zLfmoymdXo17xh5zmRJ6Q42BWCfc2oJfdAr+Yv+AP9Cb7OJ3H/2JG1HNGz/84klThPVCc=);strokeColor=#000000;strokeWidth=2;spacingTop=-1;spacingBottom=-1;spacingLeft=-1;spacingRight=-1;points=[[0.5,0,0],[1,0.5,0],[0.5,0.5,0],[0.5,0.5,0]];labelBackgroundColor=none;rounded=0;html=1;whiteSpace=wrap;" parent="1" vertex="1">
                        <mxGeometry x="119" y="560" width="102" height="81" as="geometry"/>
                    </mxCell>
                </UserObject>
                <UserObject label="&lt;div style=&quot;font-size: 1px&quot;&gt;&lt;font style=&quot;font-size:14.11px;font-family:Arial;color:#000000;direction:ltr;letter-spacing:0px;line-height:120%;opacity:1&quot;&gt;Authentifizierungs-&lt;br/&gt;Dienst&lt;br/&gt;&lt;/font&gt;&lt;/div&gt;" tags="Hintergrund" id="X-0UwtzgqucG9rMq7sj0-59">
                    <mxCell style="verticalAlign=middle;align=center;overflow=width;vsdxID=262;fillColor=#ddd6e5;gradientColor=none;shape=stencil(nZBLDoAgDERP0z3SIyjew0SURgSD+Lu9kMZoXLhwN9O+tukAlrNpJg1SzDH4QW/URgNYgZTkjA4UkwJUgGXng+6DX1zLfmoymdXo17xh5zmRJ6Q42BWCfc2oJfdAr+Yv+AP9Cb7OJ3H/2JG1HNGz/84klThPVCc=);strokeColor=#000000;strokeWidth=2;spacingTop=-1;spacingBottom=-1;spacingLeft=-1;spacingRight=-1;points=[[0.5,0,0],[1,0.5,0],[0.5,0.5,0],[0.5,0.5,0]];labelBackgroundColor=none;rounded=0;html=1;whiteSpace=wrap;" parent="1" vertex="1">
                        <mxGeometry x="104" y="407" width="132" height="68" as="geometry"/>
                    </mxCell>
                </UserObject>
                <UserObject label="&lt;div style=&quot;font-size: 1px&quot;&gt;&lt;font style=&quot;font-size:14.11px;font-family:Arial;color:#000000;direction:ltr;letter-spacing:0px;line-height:120%;opacity:1&quot;&gt;Org-&lt;br/&gt;Admin-Client&lt;br/&gt;&lt;/font&gt;&lt;/div&gt;" tags="Hintergrund" id="X-0UwtzgqucG9rMq7sj0-60">
                    <mxCell style="verticalAlign=middle;align=center;overflow=width;vsdxID=263;fillColor=#ebf1df;gradientColor=none;shape=stencil(nZBLDoAgDERP0z3SIyjew0SURgSD+Lu9kMZoXLhwN9O+tukAlrNpJg1SzDH4QW/URgNYgZTkjA4UkwJUgGXng+6DX1zLfmoymdXo17xh5zmRJ6Q42BWCfc2oJfdAr+Yv+AP9Cb7OJ3H/2JG1HNGz/84klThPVCc=);strokeColor=#000000;strokeWidth=2;spacingTop=-1;spacingBottom=-1;spacingLeft=-1;spacingRight=-1;points=[[0.5,0,0],[1,0.5,0],[0.5,0.5,0],[0.5,0.5,0]];labelBackgroundColor=none;rounded=0;html=1;whiteSpace=wrap;" parent="1" vertex="1">
                        <mxGeometry x="119" y="310" width="102" height="59" as="geometry"/>
                    </mxCell>
                </UserObject>
                <UserObject label="" tags="Hintergrund" id="X-0UwtzgqucG9rMq7sj0-61">
                    <mxCell style="vsdxID=265;fillColor=none;gradientColor=none;strokeColor=none;strokeWidth=2;spacingTop=-3;spacingBottom=-3;spacingLeft=-2;spacingRight=-2;points=[[0.5,0,0],[1,0.5,0],[0.5,1,0],[0,0.5,0]];labelBackgroundColor=none;rounded=0;html=1;whiteSpace=wrap;" parent="1" vertex="1">
                        <mxGeometry x="43" y="316" width="32" height="48" as="geometry"/>
                    </mxCell>
                </UserObject>
                <mxCell id="X-0UwtzgqucG9rMq7sj0-62" value="&lt;div style=&quot;font-size: 1px&quot;&gt;&lt;/div&gt;" style="verticalAlign=middle;align=center;overflow=width;vsdxID=266;fillColor=#FFFFFF;gradientColor=none;shape=stencil(nZBLDoAgDERP0z3SIyjew0SURgSD+Lu9kMZoXLhwN9O+tukAlrNpJg1SzDH4QW/URgNYgZTkjA4UkwJUgGXng+6DX1zLfmoymdXo17xh5zmRJ6Q42BWCfc2oJfdAr+Yv+AP9Cb7OJ3H/2JG1HNGz/84klThPVCc=);strokeColor=#000000;strokeWidth=2;spacingTop=-3;spacingBottom=-3;spacingLeft=-2;spacingRight=-2;points=[[0.5,0,0],[1,0.5,0],[0.5,1,0],[0,0.5,0]];labelBackgroundColor=none;rounded=0;html=1;whiteSpace=wrap;" parent="X-0UwtzgqucG9rMq7sj0-61" vertex="1">
                    <mxGeometry width="32" height="48" as="geometry"/>
                </mxCell>
                <mxCell id="X-0UwtzgqucG9rMq7sj0-63" style="vsdxID=267;fillColor=none;gradientColor=none;strokeColor=none;spacingTop=-3;spacingBottom=-3;spacingLeft=-2;spacingRight=-2;points=[[0.5,0,0],[1,0.5,0],[0.5,1,0],[0,0.5,0]];labelBackgroundColor=none;rounded=0;html=1;whiteSpace=wrap;" parent="X-0UwtzgqucG9rMq7sj0-61" vertex="1">
                    <mxGeometry x="7" y="5" width="17" height="35" as="geometry"/>
                </mxCell>
                <mxCell id="X-0UwtzgqucG9rMq7sj0-64" style="vsdxID=268;fillColor=#FFFFFF;gradientColor=none;shape=stencil(rVFbDsIgEDwNnyQU4glqvcfGblsilmZBS28vZGMsxg9j/JvZmX1kR5g2TLCg0CpE8hdcbR8nYY5CaztPSDZmJEwnTDt4wpH8be6ZL1CcBV39vUxI3KdKh1YbswPTEzuBzlmiVGmKau9zUKM+jlJJQrJBko8QrZ+rrQ5oRJnXyMHBWElhRVx25ebnw/5zVvPFWRm83jxY5zilvf4eSy5xpKZ7AA==);strokeColor=#000000;strokeWidth=2;spacingTop=-3;spacingBottom=-3;spacingLeft=-2;spacingRight=-2;points=[[0.5,0,0],[1,0.5,0],[0.5,1,0],[0,0.5,0]];labelBackgroundColor=none;rounded=0;html=1;whiteSpace=wrap;" parent="X-0UwtzgqucG9rMq7sj0-63" vertex="1">
                    <mxGeometry x="4" y="2" width="7" height="8" as="geometry"/>
                </mxCell>
                <mxCell id="X-0UwtzgqucG9rMq7sj0-65" value="" style="vsdxID=269;edgeStyle=none;startArrow=none;endArrow=none;startSize=5;endSize=5;strokeWidth=2;strokeColor=#000000;spacingTop=-3;spacingBottom=-3;spacingLeft=-2;spacingRight=-2;verticalAlign=middle;html=1;labelBackgroundColor=#ffffff;rounded=0;" parent="X-0UwtzgqucG9rMq7sj0-63" edge="1">
                    <mxGeometry relative="1" as="geometry">
                        <Array as="points"/>
                        <mxPoint x="8" y="11" as="sourcePoint"/>
                        <mxPoint x="8" y="24" as="targetPoint"/>
                    </mxGeometry>
                </mxCell>
                <mxCell id="X-0UwtzgqucG9rMq7sj0-66" value="" style="vsdxID=270;edgeStyle=none;startArrow=none;endArrow=none;startSize=5;endSize=5;strokeWidth=2;strokeColor=#000000;spacingTop=-3;spacingBottom=-3;spacingLeft=-2;spacingRight=-2;verticalAlign=middle;html=1;labelBackgroundColor=#ffffff;rounded=0;" parent="X-0UwtzgqucG9rMq7sj0-63" edge="1">
                    <mxGeometry relative="1" as="geometry">
                        <Array as="points"/>
                        <mxPoint x="8" y="24" as="sourcePoint"/>
                        <mxPoint y="35" as="targetPoint"/>
                    </mxGeometry>
                </mxCell>
                <mxCell id="X-0UwtzgqucG9rMq7sj0-67" value="" style="vsdxID=271;edgeStyle=none;startArrow=none;endArrow=none;startSize=5;endSize=5;strokeWidth=2;strokeColor=#000000;spacingTop=-3;spacingBottom=-3;spacingLeft=-2;spacingRight=-2;verticalAlign=middle;html=1;labelBackgroundColor=#ffffff;rounded=0;" parent="X-0UwtzgqucG9rMq7sj0-63" edge="1">
                    <mxGeometry relative="1" as="geometry">
                        <Array as="points"/>
                        <mxPoint x="8" y="24" as="sourcePoint"/>
                        <mxPoint x="17" y="35" as="targetPoint"/>
                    </mxGeometry>
                </mxCell>
                <mxCell id="X-0UwtzgqucG9rMq7sj0-68" value="" style="vsdxID=272;edgeStyle=none;startArrow=none;endArrow=none;startSize=5;endSize=5;strokeWidth=2;strokeColor=#000000;spacingTop=-3;spacingBottom=-3;spacingLeft=-2;spacingRight=-2;verticalAlign=middle;html=1;labelBackgroundColor=#ffffff;rounded=0;" parent="X-0UwtzgqucG9rMq7sj0-63" edge="1">
                    <mxGeometry relative="1" as="geometry">
                        <Array as="points"/>
                        <mxPoint x="8" y="17" as="sourcePoint"/>
                        <mxPoint y="12" as="targetPoint"/>
                    </mxGeometry>
                </mxCell>
                <mxCell id="X-0UwtzgqucG9rMq7sj0-69" value="" style="vsdxID=273;edgeStyle=none;startArrow=none;endArrow=none;startSize=5;endSize=5;strokeWidth=2;strokeColor=#000000;spacingTop=-3;spacingBottom=-3;spacingLeft=-2;spacingRight=-2;verticalAlign=middle;html=1;labelBackgroundColor=#ffffff;rounded=0;" parent="X-0UwtzgqucG9rMq7sj0-63" edge="1">
                    <mxGeometry relative="1" as="geometry">
                        <Array as="points"/>
                        <mxPoint x="8" y="17" as="sourcePoint"/>
                        <mxPoint x="17" y="12" as="targetPoint"/>
                    </mxGeometry>
                </mxCell>
                <mxCell id="X-0UwtzgqucG9rMq7sj0-70" value="&lt;div style=&quot;font-size: 1px&quot;&gt;&lt;font style=&quot;font-size:14.11px;font-family:Arial;color:#000000;direction:ltr;letter-spacing:0px;line-height:120%;opacity:1&quot;&gt;Org-Admin&lt;br/&gt;&lt;/font&gt;&lt;/div&gt;" style="text;vsdxID=265;fillColor=none;gradientColor=none;strokeColor=none;strokeWidth=2;spacingTop=-3;spacingBottom=-3;spacingLeft=-2;spacingRight=-2;points=[[0.5,0,0],[1,0.5,0],[0.5,1,0],[0,0.5,0]];labelBackgroundColor=none;rounded=0;html=1;whiteSpace=wrap;verticalAlign=middle;align=center;overflow=width;;html=1;" parent="X-0UwtzgqucG9rMq7sj0-61" vertex="1">
                    <mxGeometry x="-18.75" y="55.53" width="74.97" height="16.94" as="geometry"/>
                </mxCell>
                <UserObject label="" tags="Hintergrund" id="X-0UwtzgqucG9rMq7sj0-71">
                    <mxCell style="vsdxID=274;fillColor=none;gradientColor=none;strokeColor=none;strokeWidth=2;spacingTop=-3;spacingBottom=-3;spacingLeft=-2;spacingRight=-2;points=[[0.5,0,0],[1,0.5,0],[0.5,1,0],[0,0.5,0]];labelBackgroundColor=none;rounded=0;html=1;whiteSpace=wrap;" parent="1" vertex="1">
                        <mxGeometry x="41" y="576" width="32" height="48" as="geometry"/>
                    </mxCell>
                </UserObject>
                <mxCell id="X-0UwtzgqucG9rMq7sj0-72" value="&lt;div style=&quot;font-size: 1px&quot;&gt;&lt;/div&gt;" style="verticalAlign=middle;align=center;overflow=width;vsdxID=275;fillColor=#FFFFFF;gradientColor=none;shape=stencil(nZBLDoAgDERP0z3SIyjew0SURgSD+Lu9kMZoXLhwN9O+tukAlrNpJg1SzDH4QW/URgNYgZTkjA4UkwJUgGXng+6DX1zLfmoymdXo17xh5zmRJ6Q42BWCfc2oJfdAr+Yv+AP9Cb7OJ3H/2JG1HNGz/84klThPVCc=);strokeColor=#000000;strokeWidth=2;spacingTop=-3;spacingBottom=-3;spacingLeft=-2;spacingRight=-2;points=[[0.5,0,0],[1,0.5,0],[0.5,1,0],[0,0.5,0]];labelBackgroundColor=none;rounded=0;html=1;whiteSpace=wrap;" parent="X-0UwtzgqucG9rMq7sj0-71" vertex="1">
                    <mxGeometry width="32" height="48" as="geometry"/>
                </mxCell>
                <mxCell id="X-0UwtzgqucG9rMq7sj0-73" style="vsdxID=276;fillColor=none;gradientColor=none;strokeColor=none;spacingTop=-3;spacingBottom=-3;spacingLeft=-2;spacingRight=-2;points=[[0.5,0,0],[1,0.5,0],[0.5,1,0],[0,0.5,0]];labelBackgroundColor=none;rounded=0;html=1;whiteSpace=wrap;" parent="X-0UwtzgqucG9rMq7sj0-71" vertex="1">
                    <mxGeometry x="7" y="5" width="17" height="35" as="geometry"/>
                </mxCell>
                <mxCell id="X-0UwtzgqucG9rMq7sj0-74" style="vsdxID=277;fillColor=#FFFFFF;gradientColor=none;shape=stencil(rVFbDsIgEDwNnyQU4glqvcfGblsilmZBS28vZGMsxg9j/JvZmX1kR5g2TLCg0CpE8hdcbR8nYY5CaztPSDZmJEwnTDt4wpH8be6ZL1CcBV39vUxI3KdKh1YbswPTEzuBzlmiVGmKau9zUKM+jlJJQrJBko8QrZ+rrQ5oRJnXyMHBWElhRVx25ebnw/5zVvPFWRm83jxY5zilvf4eSy5xpKZ7AA==);strokeColor=#000000;strokeWidth=2;spacingTop=-3;spacingBottom=-3;spacingLeft=-2;spacingRight=-2;points=[[0.5,0,0],[1,0.5,0],[0.5,1,0],[0,0.5,0]];labelBackgroundColor=none;rounded=0;html=1;whiteSpace=wrap;" parent="X-0UwtzgqucG9rMq7sj0-73" vertex="1">
                    <mxGeometry x="4" y="2" width="7" height="8" as="geometry"/>
                </mxCell>
                <mxCell id="X-0UwtzgqucG9rMq7sj0-75" value="" style="vsdxID=278;edgeStyle=none;startArrow=none;endArrow=none;startSize=5;endSize=5;strokeWidth=2;strokeColor=#000000;spacingTop=-3;spacingBottom=-3;spacingLeft=-2;spacingRight=-2;verticalAlign=middle;html=1;labelBackgroundColor=#ffffff;rounded=0;" parent="X-0UwtzgqucG9rMq7sj0-73" edge="1">
                    <mxGeometry relative="1" as="geometry">
                        <Array as="points"/>
                        <mxPoint x="8" y="11" as="sourcePoint"/>
                        <mxPoint x="8" y="24" as="targetPoint"/>
                    </mxGeometry>
                </mxCell>
                <mxCell id="X-0UwtzgqucG9rMq7sj0-76" value="" style="vsdxID=279;edgeStyle=none;startArrow=none;endArrow=none;startSize=5;endSize=5;strokeWidth=2;strokeColor=#000000;spacingTop=-3;spacingBottom=-3;spacingLeft=-2;spacingRight=-2;verticalAlign=middle;html=1;labelBackgroundColor=#ffffff;rounded=0;" parent="X-0UwtzgqucG9rMq7sj0-73" edge="1">
                    <mxGeometry relative="1" as="geometry">
                        <Array as="points"/>
                        <mxPoint x="8" y="24" as="sourcePoint"/>
                        <mxPoint y="35" as="targetPoint"/>
                    </mxGeometry>
                </mxCell>
                <mxCell id="X-0UwtzgqucG9rMq7sj0-77" value="" style="vsdxID=280;edgeStyle=none;startArrow=none;endArrow=none;startSize=5;endSize=5;strokeWidth=2;strokeColor=#000000;spacingTop=-3;spacingBottom=-3;spacingLeft=-2;spacingRight=-2;verticalAlign=middle;html=1;labelBackgroundColor=#ffffff;rounded=0;" parent="X-0UwtzgqucG9rMq7sj0-73" edge="1">
                    <mxGeometry relative="1" as="geometry">
                        <Array as="points"/>
                        <mxPoint x="8" y="24" as="sourcePoint"/>
                        <mxPoint x="17" y="35" as="targetPoint"/>
                    </mxGeometry>
                </mxCell>
                <mxCell id="X-0UwtzgqucG9rMq7sj0-78" value="" style="vsdxID=281;edgeStyle=none;startArrow=none;endArrow=none;startSize=5;endSize=5;strokeWidth=2;strokeColor=#000000;spacingTop=-3;spacingBottom=-3;spacingLeft=-2;spacingRight=-2;verticalAlign=middle;html=1;labelBackgroundColor=#ffffff;rounded=0;" parent="X-0UwtzgqucG9rMq7sj0-73" edge="1">
                    <mxGeometry relative="1" as="geometry">
                        <Array as="points"/>
                        <mxPoint x="8" y="17" as="sourcePoint"/>
                        <mxPoint y="12" as="targetPoint"/>
                    </mxGeometry>
                </mxCell>
                <mxCell id="X-0UwtzgqucG9rMq7sj0-79" value="" style="vsdxID=282;edgeStyle=none;startArrow=none;endArrow=none;startSize=5;endSize=5;strokeWidth=2;strokeColor=#000000;spacingTop=-3;spacingBottom=-3;spacingLeft=-2;spacingRight=-2;verticalAlign=middle;html=1;labelBackgroundColor=#ffffff;rounded=0;" parent="X-0UwtzgqucG9rMq7sj0-73" edge="1">
                    <mxGeometry relative="1" as="geometry">
                        <Array as="points"/>
                        <mxPoint x="8" y="17" as="sourcePoint"/>
                        <mxPoint x="17" y="12" as="targetPoint"/>
                    </mxGeometry>
                </mxCell>
                <UserObject label="" tags="Hintergrund" id="X-0UwtzgqucG9rMq7sj0-81">
                    <mxCell style="vsdxID=320;fillColor=none;gradientColor=none;strokeColor=none;strokeWidth=2;spacingTop=-3;spacingBottom=-3;spacingLeft=-2;spacingRight=-2;points=[[0.5,0,0],[1,0.5,0],[0.5,1,0],[0,0.5,0]];labelBackgroundColor=none;rounded=0;html=1;whiteSpace=wrap;" parent="1" vertex="1">
                        <mxGeometry x="42" y="915" width="32" height="48" as="geometry"/>
                    </mxCell>
                </UserObject>
                <mxCell id="X-0UwtzgqucG9rMq7sj0-82" value="&lt;div style=&quot;font-size: 1px&quot;&gt;&lt;/div&gt;" style="verticalAlign=middle;align=center;overflow=width;vsdxID=321;fillColor=#FFFFFF;gradientColor=none;shape=stencil(nZBLDoAgDERP0z3SIyjew0SURgSD+Lu9kMZoXLhwN9O+tukAlrNpJg1SzDH4QW/URgNYgZTkjA4UkwJUgGXng+6DX1zLfmoymdXo17xh5zmRJ6Q42BWCfc2oJfdAr+Yv+AP9Cb7OJ3H/2JG1HNGz/84klThPVCc=);strokeColor=#000000;strokeWidth=2;spacingTop=-3;spacingBottom=-3;spacingLeft=-2;spacingRight=-2;points=[[0.5,0,0],[1,0.5,0],[0.5,1,0],[0,0.5,0]];labelBackgroundColor=none;rounded=0;html=1;whiteSpace=wrap;" parent="X-0UwtzgqucG9rMq7sj0-81" vertex="1">
                    <mxGeometry width="32" height="48" as="geometry"/>
                </mxCell>
                <mxCell id="X-0UwtzgqucG9rMq7sj0-83" style="vsdxID=322;fillColor=none;gradientColor=none;strokeColor=none;spacingTop=-3;spacingBottom=-3;spacingLeft=-2;spacingRight=-2;points=[[0.5,0,0],[1,0.5,0],[0.5,1,0],[0,0.5,0]];labelBackgroundColor=none;rounded=0;html=1;whiteSpace=wrap;" parent="X-0UwtzgqucG9rMq7sj0-81" vertex="1">
                    <mxGeometry x="7" y="5" width="17" height="35" as="geometry"/>
                </mxCell>
                <mxCell id="X-0UwtzgqucG9rMq7sj0-84" style="vsdxID=323;fillColor=#FFFFFF;gradientColor=none;shape=stencil(rVFbDsIgEDwNnyQU4glqvcfGblsilmZBS28vZGMsxg9j/JvZmX1kR5g2TLCg0CpE8hdcbR8nYY5CaztPSDZmJEwnTDt4wpH8be6ZL1CcBV39vUxI3KdKh1YbswPTEzuBzlmiVGmKau9zUKM+jlJJQrJBko8QrZ+rrQ5oRJnXyMHBWElhRVx25ebnw/5zVvPFWRm83jxY5zilvf4eSy5xpKZ7AA==);strokeColor=#000000;strokeWidth=2;spacingTop=-3;spacingBottom=-3;spacingLeft=-2;spacingRight=-2;points=[[0.5,0,0],[1,0.5,0],[0.5,1,0],[0,0.5,0]];labelBackgroundColor=none;rounded=0;html=1;whiteSpace=wrap;" parent="X-0UwtzgqucG9rMq7sj0-83" vertex="1">
                    <mxGeometry x="4" y="2" width="7" height="8" as="geometry"/>
                </mxCell>
                <mxCell id="X-0UwtzgqucG9rMq7sj0-85" value="" style="vsdxID=324;edgeStyle=none;startArrow=none;endArrow=none;startSize=5;endSize=5;strokeWidth=2;strokeColor=#000000;spacingTop=-3;spacingBottom=-3;spacingLeft=-2;spacingRight=-2;verticalAlign=middle;html=1;labelBackgroundColor=#ffffff;rounded=0;" parent="X-0UwtzgqucG9rMq7sj0-83" edge="1">
                    <mxGeometry relative="1" as="geometry">
                        <Array as="points"/>
                        <mxPoint x="8" y="11" as="sourcePoint"/>
                        <mxPoint x="8" y="24" as="targetPoint"/>
                    </mxGeometry>
                </mxCell>
                <mxCell id="X-0UwtzgqucG9rMq7sj0-86" value="" style="vsdxID=325;edgeStyle=none;startArrow=none;endArrow=none;startSize=5;endSize=5;strokeWidth=2;strokeColor=#000000;spacingTop=-3;spacingBottom=-3;spacingLeft=-2;spacingRight=-2;verticalAlign=middle;html=1;labelBackgroundColor=#ffffff;rounded=0;" parent="X-0UwtzgqucG9rMq7sj0-83" edge="1">
                    <mxGeometry relative="1" as="geometry">
                        <Array as="points"/>
                        <mxPoint x="8" y="24" as="sourcePoint"/>
                        <mxPoint y="35" as="targetPoint"/>
                    </mxGeometry>
                </mxCell>
                <mxCell id="X-0UwtzgqucG9rMq7sj0-87" value="" style="vsdxID=326;edgeStyle=none;startArrow=none;endArrow=none;startSize=5;endSize=5;strokeWidth=2;strokeColor=#000000;spacingTop=-3;spacingBottom=-3;spacingLeft=-2;spacingRight=-2;verticalAlign=middle;html=1;labelBackgroundColor=#ffffff;rounded=0;" parent="X-0UwtzgqucG9rMq7sj0-83" edge="1">
                    <mxGeometry relative="1" as="geometry">
                        <Array as="points"/>
                        <mxPoint x="8" y="24" as="sourcePoint"/>
                        <mxPoint x="17" y="35" as="targetPoint"/>
                    </mxGeometry>
                </mxCell>
                <mxCell id="X-0UwtzgqucG9rMq7sj0-88" value="" style="vsdxID=327;edgeStyle=none;startArrow=none;endArrow=none;startSize=5;endSize=5;strokeWidth=2;strokeColor=#000000;spacingTop=-3;spacingBottom=-3;spacingLeft=-2;spacingRight=-2;verticalAlign=middle;html=1;labelBackgroundColor=#ffffff;rounded=0;" parent="X-0UwtzgqucG9rMq7sj0-83" edge="1">
                    <mxGeometry relative="1" as="geometry">
                        <Array as="points"/>
                        <mxPoint x="8" y="17" as="sourcePoint"/>
                        <mxPoint y="12" as="targetPoint"/>
                    </mxGeometry>
                </mxCell>
                <mxCell id="X-0UwtzgqucG9rMq7sj0-89" value="" style="vsdxID=328;edgeStyle=none;startArrow=none;endArrow=none;startSize=5;endSize=5;strokeWidth=2;strokeColor=#000000;spacingTop=-3;spacingBottom=-3;spacingLeft=-2;spacingRight=-2;verticalAlign=middle;html=1;labelBackgroundColor=#ffffff;rounded=0;" parent="X-0UwtzgqucG9rMq7sj0-83" edge="1">
                    <mxGeometry relative="1" as="geometry">
                        <Array as="points"/>
                        <mxPoint x="8" y="17" as="sourcePoint"/>
                        <mxPoint x="17" y="12" as="targetPoint"/>
                    </mxGeometry>
                </mxCell>
                <mxCell id="X-0UwtzgqucG9rMq7sj0-90" value="&lt;div style=&quot;font-size: 1px&quot;&gt;&lt;font style=&quot;font-size:14.11px;font-family:Arial;color:#000000;direction:ltr;letter-spacing:0px;line-height:120%;opacity:1&quot;&gt;User&lt;br&gt;&lt;/font&gt;&lt;/div&gt;" style="text;vsdxID=320;fillColor=none;gradientColor=none;strokeColor=none;strokeWidth=2;spacingTop=-3;spacingBottom=-3;spacingLeft=-2;spacingRight=-2;points=[[0.5,0,0],[1,0.5,0],[0.5,1,0],[0,0.5,0]];labelBackgroundColor=none;rounded=0;html=1;whiteSpace=wrap;verticalAlign=middle;align=center;overflow=width;;html=1;" parent="X-0UwtzgqucG9rMq7sj0-81" vertex="1">
                    <mxGeometry x="-7.77" y="54.16" width="47.53" height="16.94" as="geometry"/>
                </mxCell>
                <UserObject label="&lt;div style=&quot;font-size: 1px&quot;&gt;&lt;font style=&quot;font-size:14.11px;font-family:Arial;color:#000000;direction:ltr;letter-spacing:0px;line-height:120%;opacity:1&quot;&gt;externer Push-Dienst&lt;br/&gt;&lt;/font&gt;&lt;/div&gt;" tags="Hintergrund" id="X-0UwtzgqucG9rMq7sj0-91">
                    <mxCell style="verticalAlign=middle;align=center;overflow=width;vsdxID=336;fillColor=#f2f2f2;gradientColor=none;shape=stencil(nZBLDoAgDERP0z3SIyjew0SURgSD+Lu9kMZoXLhwN9O+tukAlrNpJg1SzDH4QW/URgNYgZTkjA4UkwJUgGXng+6DX1zLfmoymdXo17xh5zmRJ6Q42BWCfc2oJfdAr+Yv+AP9Cb7OJ3H/2JG1HNGz/84klThPVCc=);strokeColor=#000000;strokeWidth=2;spacingTop=-1;spacingBottom=-1;spacingLeft=-1;spacingRight=-1;points=[[0.5,0,0],[1,0.5,0],[0.5,0.5,0],[0.5,0.5,0]];labelBackgroundColor=none;rounded=0;html=1;whiteSpace=wrap;" parent="1" vertex="1">
                        <mxGeometry x="40" y="735" width="260" height="48" as="geometry"/>
                    </mxCell>
                </UserObject>
                <UserObject label="&lt;div style=&quot;font-size: 1px&quot;&gt;&lt;font style=&quot;font-size:14.11px;font-family:Arial;color:#000000;direction:ltr;letter-spacing:0px;line-height:120%;opacity:1&quot;&gt;IDP-Dienst&lt;br/&gt;&lt;/font&gt;&lt;/div&gt;" tags="Hintergrund" id="X-0UwtzgqucG9rMq7sj0-92">
                    <mxCell style="verticalAlign=middle;align=center;overflow=width;vsdxID=355;fillColor=#ddd6e5;gradientColor=none;shape=stencil(nZBLDoAgDERP0z3SIyjew0SURgSD+Lu9kMZoXLhwN9O+tukAlrNpJg1SzDH4QW/URgNYgZTkjA4UkwJUgGXng+6DX1zLfmoymdXo17xh5zmRJ6Q42BWCfc2oJfdAr+Yv+AP9Cb7OJ3H/2JG1HNGz/84klThPVCc=);strokeColor=#000000;strokeWidth=2;spacingTop=-1;spacingBottom=-1;spacingLeft=-1;spacingRight=-1;points=[[0.5,0,0],[1,0.5,0],[0.5,0.5,0],[0.5,0.5,0]];labelBackgroundColor=none;rounded=0;html=1;whiteSpace=wrap;" parent="1" vertex="1">
                        <mxGeometry x="292" y="837" width="102" height="45" as="geometry"/>
                    </mxCell>
                </UserObject>
                <UserObject label="&lt;div style=&quot;font-size: 1px&quot;&gt;&lt;font style=&quot;font-size:14.11px;font-family:Arial;color:#000000;direction:ltr;letter-spacing:0px;line-height:120%;opacity:1&quot;&gt;Matrix-&lt;br/&gt;Homeserver&lt;br/&gt;&lt;/font&gt;&lt;/div&gt;" tags="Hintergrund" id="X-0UwtzgqucG9rMq7sj0-93">
                    <mxCell style="verticalAlign=middle;align=center;overflow=width;vsdxID=350;fillColor=#f2f2f2;gradientColor=none;shape=stencil(nZBLDoAgDERP0z3SIyjew0SURgSD+Lu9kMZoXLhwN9O+tukAlrNpJg1SzDH4QW/URgNYgZTkjA4UkwJUgGXng+6DX1zLfmoymdXo17xh5zmRJ6Q42BWCfc2oJfdAr+Yv+AP9Cb7OJ3H/2JG1HNGz/84klThPVCc=);strokeColor=#000000;strokeWidth=2;spacingTop=-1;spacingBottom=-1;spacingLeft=-1;spacingRight=-1;points=[[0.5,0,0],[1,0.5,0],[0.5,0.5,0],[0.5,0.5,0]];labelBackgroundColor=none;rounded=0;html=1;whiteSpace=wrap;" parent="1" vertex="1">
                        <mxGeometry x="765" y="672" width="158" height="45" as="geometry"/>
                    </mxCell>
                </UserObject>
                <UserObject label="&lt;div style=&quot;font-size: 1px&quot;&gt;&lt;font style=&quot;font-size:14.11px;font-family:Arial;color:#000000;direction:ltr;letter-spacing:0px;line-height:120%;opacity:1&quot;&gt;Matrix-&lt;br/&gt;Homeserver&lt;br/&gt;&lt;/font&gt;&lt;/div&gt;" tags="Hintergrund" id="X-0UwtzgqucG9rMq7sj0-94">
                    <mxCell style="verticalAlign=middle;align=center;overflow=width;vsdxID=378;fillColor=#f2f2f2;gradientColor=none;shape=stencil(nZBLDoAgDERP0z3SIyjew0SURgSD+Lu9kMZoXLhwN9O+tukAlrNpJg1SzDH4QW/URgNYgZTkjA4UkwJUgGXng+6DX1zLfmoymdXo17xh5zmRJ6Q42BWCfc2oJfdAr+Yv+AP9Cb7OJ3H/2JG1HNGz/84klThPVCc=);strokeColor=#000000;strokeWidth=2;spacingTop=-1;spacingBottom=-1;spacingLeft=-1;spacingRight=-1;points=[[0.5,0,0],[1,0.5,0],[0.5,0.5,0],[0.5,0.5,0]];labelBackgroundColor=none;rounded=0;html=1;whiteSpace=wrap;" parent="1" vertex="1">
                        <mxGeometry x="765" y="833" width="158" height="45" as="geometry"/>
                    </mxCell>
                </UserObject>
                <UserObject label="" tags="Hintergrund" id="X-0UwtzgqucG9rMq7sj0-120">
                    <mxCell style="vsdxID=455;fillColor=none;gradientColor=none;strokeColor=none;spacingTop=-3;spacingBottom=-3;spacingLeft=-2;spacingRight=-2;points=[];labelBackgroundColor=#ffffff;rounded=0;html=1;whiteSpace=wrap;" parent="1" vertex="1">
                        <mxGeometry x="223" y="950" width="699" height="19.159999999999968" as="geometry"/>
                    </mxCell>
                </UserObject>
                <mxCell id="X-0UwtzgqucG9rMq7sj0-445" value="" style="rounded=0;orthogonalLoop=1;jettySize=auto;html=1;endArrow=halfCircle;endFill=0;endSize=6;strokeWidth=1;sketch=0;exitX=-0.003;exitY=0.651;exitDx=0;exitDy=0;exitPerimeter=0;" parent="X-0UwtzgqucG9rMq7sj0-120" source="X-0UwtzgqucG9rMq7sj0-120" target="X-0UwtzgqucG9rMq7sj0-447" edge="1">
                    <mxGeometry relative="1" as="geometry">
                        <mxPoint x="187" y="14.159999999999968" as="sourcePoint"/>
                    </mxGeometry>
                </mxCell>
                <mxCell id="X-0UwtzgqucG9rMq7sj0-447" value="" style="ellipse;whiteSpace=wrap;html=1;align=center;aspect=fixed;fillColor=none;strokeColor=none;resizable=0;perimeter=centerPerimeter;rotatable=0;allowArrows=0;points=[];outlineConnect=1;rotation=-180;" parent="X-0UwtzgqucG9rMq7sj0-120" vertex="1">
                    <mxGeometry x="202" y="9.159999999999968" width="10" height="10" as="geometry"/>
                </mxCell>
                <UserObject label="&lt;div style=&quot;font-size: 1px&quot;&gt;&lt;p style=&quot;text-align:center;margin-left:0;margin-right:0;margin-top:0px;margin-bottom:0px;text-indent:0;vertical-align:top;direction:ltr;&quot;&gt;&lt;font style=&quot;font-size:14.11px;font-family:Arial;color:#000000;direction:ltr;letter-spacing:0px;line-height:120%;opacity:1&quot;&gt;FHIR-Proxy&lt;br&gt;&lt;br&gt;&lt;/font&gt;&lt;/p&gt;&lt;p style=&quot;text-align:left;margin-left:0;margin-right:0;margin-top:0px;margin-bottom:0px;text-indent:0;vertical-align:top;direction:ltr;&quot;&gt;&lt;font style=&quot;font-size:11.29px;font-family:Arial;color:#000000;direction:ltr;letter-spacing:0px;line-height:120%;opacity:1&quot;&gt;&amp;nbsp;Suche&lt;br&gt;&lt;br&gt;&amp;nbsp;Verwaltung&lt;br&gt;&lt;br&gt;&lt;/font&gt;&lt;/p&gt;&lt;p style=&quot;text-align:right;margin-left:0;margin-right:0;margin-top:0px;margin-bottom:0px;text-indent:0;vertical-align:top;direction:ltr;&quot;&gt;&lt;span style=&quot;background-color: initial; font-family: Arial; font-size: 11.29px; letter-spacing: 0px;&quot;&gt;&lt;br&gt;&lt;/span&gt;&lt;/p&gt;&lt;p style=&quot;margin: 0px; text-indent: 0px; vertical-align: top; direction: ltr;&quot;&gt;&lt;span style=&quot;background-color: initial; font-family: Arial; font-size: 11.29px; letter-spacing: 0px;&quot;&gt;Provider-&lt;/span&gt;&lt;br&gt;&lt;/p&gt;&lt;p style=&quot;margin: 0px; text-indent: 0px; vertical-align: top; direction: ltr;&quot;&gt;&lt;font style=&quot;font-size:11.29px;font-family:Arial;color:#000000;direction:ltr;letter-spacing:0px;line-height:120%;opacity:1&quot;&gt;&lt;span style=&quot;letter-spacing: 0px; background-color: initial;&quot;&gt;Services&lt;/span&gt;&lt;br&gt;&lt;/font&gt;&lt;/p&gt;&lt;/div&gt;" tags="Hintergrund" id="X-0UwtzgqucG9rMq7sj0-140">
                    <mxCell style="verticalAlign=top;align=center;overflow=width;vsdxID=482;fillColor=#f2f2f2;gradientColor=none;shape=stencil(nZBLDoAgDERP0z3SIyjew0SURgSD+Lu9kMZoXLhwN9O+tukAlrNpJg1SzDH4QW/URgNYgZTkjA4UkwJUgGXng+6DX1zLfmoymdXo17xh5zmRJ6Q42BWCfc2oJfdAr+Yv+AP9Cb7OJ3H/2JG1HNGz/84klThPVCc=);strokeColor=#000000;strokeWidth=2;spacingTop=-1;spacingBottom=-1;spacingLeft=-1;spacingRight=-1;points=[[0.5,0,0],[1,0.5,0],[0.5,0.5,0],[0.5,0.5,0]];labelBackgroundColor=none;rounded=0;html=1;whiteSpace=wrap;" parent="1" vertex="1">
                        <mxGeometry x="666" y="230" width="102" height="138" as="geometry"/>
                    </mxCell>
                </UserObject>
                <UserObject label="&lt;div style=&quot;font-size: 1px&quot;&gt;&lt;p style=&quot;text-align:left;margin-left:0;margin-right:0;margin-top:0px;margin-bottom:0px;text-indent:0;vertical-align:top;direction:ltr;&quot;&gt;&lt;font style=&quot;font-size:15.52px;font-family:Calibri;color:#000000;direction:ltr;letter-spacing:0px;line-height:120%;opacity:1&quot;&gt;VZD-LDAP-Directory&lt;br/&gt;&lt;/font&gt;&lt;/p&gt;&lt;/div&gt;" tags="Hintergrund" id="X-0UwtzgqucG9rMq7sj0-155">
                    <mxCell style="verticalAlign=top;align=left;overflow=width;vsdxID=539;fillColor=#fcebdd;gradientColor=none;shape=stencil(nZBLDoAgDERP0z3SIyjew0SURgSD+Lu9kMZoXLhwN9O+tukAlrNpJg1SzDH4QW/URgNYgZTkjA4UkwJUgGXng+6DX1zLfmoymdXo17xh5zmRJ6Q42BWCfc2oJfdAr+Yv+AP9Cb7OJ3H/2JG1HNGz/84klThPVCc=);strokeColor=#000000;strokeWidth=2;points=[];labelBackgroundColor=none;rounded=0;html=1;whiteSpace=wrap;" parent="1" vertex="1">
                        <mxGeometry x="1293" y="52" width="142" height="327" as="geometry"/>
                    </mxCell>
                </UserObject>
                <UserObject label="&lt;div style=&quot;font-size: 1px&quot;&gt;&lt;p style=&quot;text-align:center;margin-left:0;margin-right:0;margin-top:0px;margin-bottom:0px;text-indent:0;vertical-align:top;direction:ltr;&quot;&gt;&lt;font style=&quot;font-size:14.11px;font-family:Arial;color:#000000;direction:ltr;letter-spacing:0px;line-height:120%;opacity:1&quot;&gt;Auth-Service&lt;br&gt;&lt;/font&gt;&lt;/p&gt;&lt;p style=&quot;text-align:left;margin-left:0;margin-right:0;margin-top:0px;margin-bottom:0px;text-indent:0;vertical-align:top;direction:ltr;&quot;&gt;&lt;font style=&quot;font-size:11.29px;font-family:Arial;color:#000000;direction:ltr;letter-spacing:0px;line-height:120%;opacity:1&quot;&gt;&lt;br&gt;/tim-authenticate&lt;br&gt;&lt;br&gt;/owner-authenticate&lt;/font&gt;&lt;/p&gt;&lt;p style=&quot;text-align:left;margin-left:0;margin-right:0;margin-top:0px;margin-bottom:0px;text-indent:0;vertical-align:top;direction:ltr;&quot;&gt;&lt;font style=&quot;font-size:11.29px;font-family:Arial;color:#000000;direction:ltr;letter-spacing:0px;line-height:120%;opacity:1&quot;&gt;&lt;br&gt;&lt;/font&gt;&lt;/p&gt;&lt;p style=&quot;text-align:left;margin-left:0;margin-right:0;margin-top:0px;margin-bottom:0px;text-indent:0;vertical-align:top;direction:ltr;&quot;&gt;&lt;font style=&quot;font-size:11.29px;font-family:Arial;color:#000000;direction:ltr;letter-spacing:0px;line-height:120%;opacity:1&quot;&gt;/owner-authenticate-decoupled&lt;br&gt;&lt;br&gt;/signin-gematik-idp-dienst&lt;br&gt;&lt;br&gt;/ti-provider-authenticate&lt;br&gt;&lt;/font&gt;&lt;/p&gt;&lt;/div&gt;" tags="Hintergrund" id="X-0UwtzgqucG9rMq7sj0-251">
                    <mxCell style="verticalAlign=top;align=center;overflow=width;vsdxID=962;fillColor=#f2f2f2;gradientColor=none;shape=stencil(nZBLDoAgDERP0z3SIyjew0SURgSD+Lu9kMZoXLhwN9O+tukAlrNpJg1SzDH4QW/URgNYgZTkjA4UkwJUgGXng+6DX1zLfmoymdXo17xh5zmRJ6Q42BWCfc2oJfdAr+Yv+AP9Cb7OJ3H/2JG1HNGz/84klThPVCc=);strokeColor=#000000;strokeWidth=2;spacingTop=-1;spacingBottom=-1;spacingLeft=-1;spacingRight=-1;points=[[0.5,0,0],[1,0.5,0],[0.5,0.5,0],[0.5,0.5,0]];labelBackgroundColor=none;rounded=0;html=1;whiteSpace=wrap;" parent="1" vertex="1">
                        <mxGeometry x="1047" y="66" width="163" height="184" as="geometry"/>
                    </mxCell>
                </UserObject>
                <UserObject label="&lt;div style=&quot;font-size: 1px&quot;&gt;&lt;font style=&quot;font-size:14.11px;font-family:Arial;color:#000000;direction:ltr;letter-spacing:0px;line-height:120%;opacity:1&quot;&gt;OAuth&lt;br/&gt;&lt;/font&gt;&lt;font style=&quot;font-size:11.29px;font-family:Arial;color:#000000;direction:ltr;letter-spacing:0px;line-height:120%;opacity:1&quot;&gt;/token&lt;/font&gt;&lt;font style=&quot;font-size:14.11px;font-family:Arial;color:#000000;direction:ltr;letter-spacing:0px;line-height:120%;opacity:1&quot;&gt;&lt;br/&gt;&lt;/font&gt;&lt;/div&gt;" tags="Hintergrund" id="X-0UwtzgqucG9rMq7sj0-272">
                    <mxCell style="verticalAlign=top;align=center;overflow=width;vsdxID=996;fillColor=#f2f2f2;gradientColor=none;shape=stencil(nZBLDoAgDERP0z3SIyjew0SURgSD+Lu9kMZoXLhwN9O+tukAlrNpJg1SzDH4QW/URgNYgZTkjA4UkwJUgGXng+6DX1zLfmoymdXo17xh5zmRJ6Q42BWCfc2oJfdAr+Yv+AP9Cb7OJ3H/2JG1HNGz/84klThPVCc=);strokeColor=#000000;strokeWidth=2;spacingTop=-1;spacingBottom=-1;spacingLeft=-1;spacingRight=-1;points=[[0.5,0,0],[1,0.5,0],[0.5,0.5,0],[0.5,0.5,0]];labelBackgroundColor=none;rounded=0;html=1;whiteSpace=wrap;" parent="1" vertex="1">
                        <mxGeometry x="1021" y="320" width="122" height="48" as="geometry"/>
                    </mxCell>
                </UserObject>
                <UserObject label="&lt;div style=&quot;font-size: 1px&quot;&gt;&lt;font style=&quot;font-size:14.11px;font-family:Arial;color:#000000;direction:ltr;letter-spacing:0px;line-height:120%;opacity:1&quot;&gt;&lt;br/&gt;Messenger-&lt;br/&gt;Proxy&lt;br/&gt;&lt;br/&gt;&lt;/font&gt;&lt;/div&gt;" tags="Hintergrund" id="X-0UwtzgqucG9rMq7sj0-331">
                    <mxCell style="verticalAlign=middle;align=center;overflow=width;vsdxID=1071;fillColor=#f2f2f2;gradientColor=none;shape=stencil(nZBLDoAgDERP0z3SIyjew0SURgSD+Lu9kMZoXLhwN9O+tukAlrNpJg1SzDH4QW/URgNYgZTkjA4UkwJUgGXng+6DX1zLfmoymdXo17xh5zmRJ6Q42BWCfc2oJfdAr+Yv+AP9Cb7OJ3H/2JG1HNGz/84klThPVCc=);strokeColor=#000000;strokeWidth=2;spacingTop=-1;spacingBottom=-1;spacingLeft=-1;spacingRight=-1;points=[[0.5,0,0],[1,0.5,0],[0.5,0.5,0],[0.5,0.5,0]];labelBackgroundColor=none;rounded=0;html=1;whiteSpace=wrap;" parent="1" vertex="1">
                        <mxGeometry x="926.5" y="893.5" width="84" height="70" as="geometry"/>
                    </mxCell>
                </UserObject>
                <UserObject label="&lt;div style=&quot;font-size: 1px&quot;&gt;&lt;font style=&quot;font-size:14.11px;font-family:Arial;color:#000000;direction:ltr;letter-spacing:0px;line-height:120%;opacity:1&quot;&gt;LDAP- &lt;br/&gt;Directory&lt;br/&gt;&lt;/font&gt;&lt;/div&gt;" tags="Hintergrund" id="X-0UwtzgqucG9rMq7sj0-351">
                    <mxCell style="verticalAlign=middle;align=center;overflow=width;vsdxID=1105;fillColor=#f2f2f2;gradientColor=none;shape=stencil(nZE9DsIwDIVP4xWFWAydS7kAJ4iIIRYhqdLwe3rSukhRB4Zmst/7YkvPgO3gTE+g1ZBTvNKTbXaAe9Cag6PEuVSAHWB7jokuKd6Dlb43hdRqUsjKn+1Ia2XS6cgfEg2bTVO93czIkFt8jMtfgiqx3vMwJf1BUM+hQn/mKvgPuhJcrC/FFI8Ex95LurW/jLNIcgrsvg==);strokeColor=#000000;strokeWidth=2;spacingTop=2;spacingBottom=2;spacingLeft=3;spacingRight=3;points=[[0.5,0,0],[1,0.5,0],[0.5,0.5,0],[0.5,0.5,0]];labelBackgroundColor=none;rounded=1;html=1;whiteSpace=wrap;" parent="1" vertex="1">
                        <mxGeometry x="1308" y="90" width="117" height="48" as="geometry"/>
                    </mxCell>
                </UserObject>
                <UserObject label="&lt;div style=&quot;font-size: 1px&quot;&gt;&lt;font style=&quot;font-size:14.11px;font-family:Arial;color:#000000;direction:ltr;letter-spacing:0px;line-height:120%;opacity:1&quot;&gt;VZD-Service&lt;br/&gt;&lt;/font&gt;&lt;/div&gt;" tags="Hintergrund" id="X-0UwtzgqucG9rMq7sj0-352">
                    <mxCell style="verticalAlign=middle;align=center;overflow=width;vsdxID=1106;fillColor=#f2f2f2;gradientColor=none;shape=stencil(nZBLDoAgDERP0z3SIyjew0SURgSD+Lu9kMZoXLhwN9O+tukAlrNpJg1SzDH4QW/URgNYgZTkjA4UkwJUgGXng+6DX1zLfmoymdXo17xh5zmRJ6Q42BWCfc2oJfdAr+Yv+AP9Cb7OJ3H/2JG1HNGz/84klThPVCc=);strokeColor=#000000;strokeWidth=2;spacingTop=-1;spacingBottom=-1;spacingLeft=-1;spacingRight=-1;points=[[0.5,0,0],[1,0.5,0],[0.5,0.5,0],[0.5,0.5,0]];labelBackgroundColor=none;rounded=0;html=1;whiteSpace=wrap;" parent="1" vertex="1">
                        <mxGeometry x="1302" y="286" width="122" height="34" as="geometry"/>
                    </mxCell>
                </UserObject>
                <mxCell id="X-0UwtzgqucG9rMq7sj0-362" parent="1" vertex="1">
                    <mxGeometry x="576" y="484" as="geometry"/>
                </mxCell>
                <UserObject label="" tags="Hintergrund" id="X-0UwtzgqucG9rMq7sj0-367">
                    <mxCell style="vsdxID=329;edgeStyle=none;startArrow=none;endArrow=none;startSize=5;endSize=5;strokeColor=#000000;spacingTop=0;spacingBottom=0;spacingLeft=0;spacingRight=0;verticalAlign=middle;html=1;labelBackgroundColor=#ffffff;rounded=0;exitX=1;exitY=0.5;exitDx=0;exitDy=0;exitPerimeter=0;entryX=0;entryY=0.5081967213114754;entryDx=0;entryDy=0;entryPerimeter=0;" parent="1" source="X-0UwtzgqucG9rMq7sj0-81" target="X-0UwtzgqucG9rMq7sj0-12" edge="1">
                        <mxGeometry relative="1" as="geometry">
                            <mxPoint as="offset"/>
                            <Array as="points"/>
                        </mxGeometry>
                    </mxCell>
                </UserObject>
                <UserObject label="" tags="Hintergrund" id="X-0UwtzgqucG9rMq7sj0-370">
                    <mxCell style="vsdxID=291;edgeStyle=none;startArrow=none;endArrow=none;startSize=5;endSize=5;strokeColor=#000000;spacingTop=0;spacingBottom=0;spacingLeft=0;spacingRight=0;verticalAlign=middle;html=1;labelBackgroundColor=#ffffff;rounded=0;exitX=1;exitY=0.5;exitDx=0;exitDy=0;exitPerimeter=0;entryX=0;entryY=0.4918032786885246;entryDx=0;entryDy=0;entryPerimeter=0;" parent="1" source="X-0UwtzgqucG9rMq7sj0-71" target="X-0UwtzgqucG9rMq7sj0-58" edge="1">
                        <mxGeometry relative="1" as="geometry">
                            <Array as="points"/>
                        </mxGeometry>
                    </mxCell>
                </UserObject>
                <UserObject label="" tags="Hintergrund" id="X-0UwtzgqucG9rMq7sj0-371">
                    <mxCell style="vsdxID=292;edgeStyle=none;startArrow=none;endArrow=none;startSize=5;endSize=5;strokeColor=#000000;spacingTop=0;spacingBottom=0;spacingLeft=0;spacingRight=0;verticalAlign=middle;html=1;labelBackgroundColor=#ffffff;rounded=0;exitX=1;exitY=0.5;exitDx=0;exitDy=0;exitPerimeter=0;entryX=0;entryY=0.5084745762711864;entryDx=0;entryDy=0;entryPerimeter=0;" parent="1" source="X-0UwtzgqucG9rMq7sj0-61" target="X-0UwtzgqucG9rMq7sj0-60" edge="1">
                        <mxGeometry relative="1" as="geometry">
                            <Array as="points"/>
                        </mxGeometry>
                    </mxCell>
                </UserObject>
                <mxCell id="X-0UwtzgqucG9rMq7sj0-112" value="&lt;div style=&quot;font-size: 1px&quot;&gt;&lt;font style=&quot;font-size:11.29px;font-family:Arial;color:#000000;direction:ltr;letter-spacing:0px;line-height:120%;opacity:1&quot;&gt;Notification&lt;br/&gt;&lt;/font&gt;&lt;/div&gt;" style="text;vsdxID=400;rotation=359.95;fillColor=none;gradientColor=none;edgeStyle=none;strokeColor=none;spacingTop=-3;spacingBottom=-3;spacingLeft=-2;spacingRight=-2;points=[];labelBackgroundColor=#ffffff;rounded=0;html=1;whiteSpace=wrap;verticalAlign=middle;align=center;overflow=width;;html=1;" parent="1" vertex="1">
                    <mxGeometry x="100" y="810" width="61.81" height="61.81" as="geometry"/>
                </mxCell>
                <mxCell id="X-0UwtzgqucG9rMq7sj0-380" value="&lt;div style=&quot;font-size: 1px&quot;&gt;&lt;font style=&quot;font-size:11.29px;font-family:Arial;color:#000000;direction:ltr;letter-spacing:0px;line-height:120%;opacity:1&quot;&gt;Notification&lt;br/&gt;&lt;/font&gt;&lt;/div&gt;" style="text;vsdxID=400;rotation=359.95;fillColor=none;gradientColor=none;edgeStyle=none;strokeColor=none;spacingTop=-3;spacingBottom=-3;spacingLeft=-2;spacingRight=-2;points=[];labelBackgroundColor=#ffffff;rounded=0;html=1;whiteSpace=wrap;verticalAlign=middle;align=center;overflow=width;;html=1;" parent="1" vertex="1">
                    <mxGeometry x="100" y="632.19" width="61.81" height="61.81" as="geometry"/>
                </mxCell>
                <mxCell id="X-0UwtzgqucG9rMq7sj0-424" value="" style="rounded=0;orthogonalLoop=1;jettySize=auto;html=1;endArrow=halfCircle;endFill=0;endSize=6;strokeWidth=1;sketch=0;" parent="1" target="X-0UwtzgqucG9rMq7sj0-426" edge="1">
                    <mxGeometry relative="1" as="geometry">
                        <mxPoint x="170" y="640" as="sourcePoint"/>
                    </mxGeometry>
                </mxCell>
                <mxCell id="X-0UwtzgqucG9rMq7sj0-425" value="" style="rounded=0;orthogonalLoop=1;jettySize=auto;html=1;endArrow=oval;endFill=0;sketch=0;sourcePerimeterSpacing=0;targetPerimeterSpacing=0;endSize=10;exitX=0.5;exitY=0;exitDx=0;exitDy=0;exitPerimeter=0;" parent="1" source="X-0UwtzgqucG9rMq7sj0-91" target="X-0UwtzgqucG9rMq7sj0-426" edge="1">
                    <mxGeometry relative="1" as="geometry">
                        <mxPoint x="170" y="685" as="sourcePoint"/>
                    </mxGeometry>
                </mxCell>
                <mxCell id="X-0UwtzgqucG9rMq7sj0-426" value="" style="ellipse;whiteSpace=wrap;html=1;align=center;aspect=fixed;fillColor=none;strokeColor=none;resizable=0;perimeter=centerPerimeter;rotatable=0;allowArrows=0;points=[];outlineConnect=1;rotation=-90;container=0;" parent="1" vertex="1">
                    <mxGeometry x="165" y="660" width="10" height="10" as="geometry"/>
                </mxCell>
                <mxCell id="X-0UwtzgqucG9rMq7sj0-431" value="" style="rounded=0;orthogonalLoop=1;jettySize=auto;html=1;endArrow=halfCircle;endFill=0;endSize=6;strokeWidth=1;sketch=0;exitX=0.5;exitY=0;exitDx=0;exitDy=0;exitPerimeter=0;" parent="1" source="X-0UwtzgqucG9rMq7sj0-12" target="X-0UwtzgqucG9rMq7sj0-433" edge="1">
                    <mxGeometry relative="1" as="geometry">
                        <mxPoint x="170" y="860" as="sourcePoint"/>
                    </mxGeometry>
                </mxCell>
                <mxCell id="X-0UwtzgqucG9rMq7sj0-432" value="" style="rounded=0;orthogonalLoop=1;jettySize=auto;html=1;endArrow=oval;endFill=0;sketch=0;sourcePerimeterSpacing=0;targetPerimeterSpacing=0;endSize=10;" parent="1" target="X-0UwtzgqucG9rMq7sj0-433" edge="1">
                    <mxGeometry relative="1" as="geometry">
                        <mxPoint x="170" y="783" as="sourcePoint"/>
                    </mxGeometry>
                </mxCell>
                <mxCell id="X-0UwtzgqucG9rMq7sj0-433" value="" style="ellipse;whiteSpace=wrap;html=1;align=center;aspect=fixed;fillColor=none;strokeColor=none;resizable=0;perimeter=centerPerimeter;rotatable=0;allowArrows=0;points=[];outlineConnect=1;container=0;rotation=90;" parent="1" vertex="1">
                    <mxGeometry x="165" y="835.91" width="10" height="10" as="geometry"/>
                </mxCell>
                <mxCell id="X-0UwtzgqucG9rMq7sj0-438" value="" style="ellipse;whiteSpace=wrap;html=1;align=center;aspect=fixed;fillColor=none;strokeColor=none;resizable=0;perimeter=centerPerimeter;rotatable=0;allowArrows=0;points=[];outlineConnect=1;rotation=-180;" parent="1" vertex="1">
                    <mxGeometry x="238" y="854.5" width="10" height="10" as="geometry"/>
                </mxCell>
                <mxCell id="X-0UwtzgqucG9rMq7sj0-440" value="" style="rounded=0;orthogonalLoop=1;jettySize=auto;html=1;endArrow=halfCircle;endFill=0;endSize=6;strokeWidth=1;sketch=0;exitX=-0.031;exitY=0.494;exitDx=0;exitDy=0;exitPerimeter=0;" parent="1" source="X-0UwtzgqucG9rMq7sj0-21" target="X-0UwtzgqucG9rMq7sj0-442" edge="1">
                    <mxGeometry relative="1" as="geometry">
                        <mxPoint x="370" y="759.5" as="sourcePoint"/>
                    </mxGeometry>
                </mxCell>
                <mxCell id="X-0UwtzgqucG9rMq7sj0-441" value="" style="rounded=0;orthogonalLoop=1;jettySize=auto;html=1;endArrow=oval;endFill=0;sketch=0;sourcePerimeterSpacing=0;targetPerimeterSpacing=0;endSize=10;exitX=1;exitY=0.5;exitDx=0;exitDy=0;exitPerimeter=0;" parent="1" source="X-0UwtzgqucG9rMq7sj0-91" target="X-0UwtzgqucG9rMq7sj0-442" edge="1">
                    <mxGeometry relative="1" as="geometry">
                        <mxPoint x="330" y="759.5" as="sourcePoint"/>
                    </mxGeometry>
                </mxCell>
                <mxCell id="X-0UwtzgqucG9rMq7sj0-442" value="" style="ellipse;whiteSpace=wrap;html=1;align=center;aspect=fixed;fillColor=none;strokeColor=none;resizable=0;perimeter=centerPerimeter;rotatable=0;allowArrows=0;points=[];outlineConnect=1;" parent="1" vertex="1">
                    <mxGeometry x="325" y="754.5" width="10" height="10" as="geometry"/>
                </mxCell>
                <mxCell id="X-0UwtzgqucG9rMq7sj0-446" value="" style="rounded=0;orthogonalLoop=1;jettySize=auto;html=1;endArrow=oval;endFill=0;sketch=0;sourcePerimeterSpacing=0;targetPerimeterSpacing=0;endSize=10;exitX=-0.013;exitY=0.972;exitDx=0;exitDy=0;exitPerimeter=0;" parent="1" source="X-0UwtzgqucG9rMq7sj0-331" target="X-0UwtzgqucG9rMq7sj0-447" edge="1">
                    <mxGeometry relative="1" as="geometry">
                        <mxPoint x="450" y="964.16" as="sourcePoint"/>
                    </mxGeometry>
                </mxCell>
                <mxCell id="X-0UwtzgqucG9rMq7sj0-125" value="&lt;div style=&quot;font-size: 1px&quot;&gt;&lt;p style=&quot;text-align:center;margin-left:0;margin-right:0;margin-top:0px;margin-bottom:0px;text-indent:0;vertical-align:middle;direction:ltr;&quot;&gt;&lt;font style=&quot;font-size:11.29px;font-family:Arial;color:#000000;direction:ltr;letter-spacing:0px;line-height:120%;opacity:1&quot;&gt;Matrix-Client-&lt;br&gt;&lt;/font&gt;&lt;/p&gt;&lt;p style=&quot;text-align:center;margin-left:0;margin-right:0;margin-top:0px;margin-bottom:0px;text-indent:0;vertical-align:middle;direction:ltr;&quot;&gt;&lt;font style=&quot;font-size:11.29px;font-family:Arial;color:#000000;direction:ltr;letter-spacing:0px;line-height:120%;opacity:1&quot;&gt;Server-API&lt;/font&gt;&lt;font style=&quot;font-size:14.11px;font-family:Arial;color:#000000;direction:ltr;letter-spacing:0px;line-height:120%;opacity:1&quot;&gt;&lt;br&gt;&lt;/font&gt;&lt;/p&gt;&lt;/div&gt;" style="text;vsdxID=455;fillColor=none;gradientColor=none;strokeColor=none;spacingTop=-3;spacingBottom=-3;spacingLeft=-2;spacingRight=-2;points=[];labelBackgroundColor=#ffffff;rounded=0;html=1;whiteSpace=wrap;verticalAlign=middle;align=center;overflow=width;;html=1;" parent="1" vertex="1">
                    <mxGeometry x="394" y="969" width="73.07" height="44.03" as="geometry"/>
                </mxCell>
                <mxCell id="X-0UwtzgqucG9rMq7sj0-451" value="" style="rounded=0;orthogonalLoop=1;jettySize=auto;html=1;endArrow=halfCircle;endFill=0;endSize=6;strokeWidth=1;sketch=0;exitX=1.01;exitY=0.883;exitDx=0;exitDy=0;exitPerimeter=0;" parent="1" source="X-0UwtzgqucG9rMq7sj0-331" target="X-0UwtzgqucG9rMq7sj0-453" edge="1">
                    <mxGeometry relative="1" as="geometry">
                        <mxPoint x="1103" y="955" as="sourcePoint"/>
                    </mxGeometry>
                </mxCell>
                <mxCell id="X-0UwtzgqucG9rMq7sj0-452" value="" style="rounded=0;orthogonalLoop=1;jettySize=auto;html=1;endArrow=oval;endFill=0;sketch=0;sourcePerimeterSpacing=0;targetPerimeterSpacing=0;endSize=10;exitX=-0.011;exitY=0.925;exitDx=0;exitDy=0;exitPerimeter=0;" parent="1" source="X-0UwtzgqucG9rMq7sj0-13" target="X-0UwtzgqucG9rMq7sj0-453" edge="1">
                    <mxGeometry relative="1" as="geometry">
                        <mxPoint x="1143" y="955" as="sourcePoint"/>
                    </mxGeometry>
                </mxCell>
                <mxCell id="X-0UwtzgqucG9rMq7sj0-453" value="" style="ellipse;whiteSpace=wrap;html=1;align=center;aspect=fixed;fillColor=none;strokeColor=none;resizable=0;perimeter=centerPerimeter;rotatable=0;allowArrows=0;points=[];outlineConnect=1;rotation=-180;" parent="1" vertex="1">
                    <mxGeometry x="1118" y="950" width="10" height="10" as="geometry"/>
                </mxCell>
                <mxCell id="X-0UwtzgqucG9rMq7sj0-454" value="&lt;div style=&quot;&quot;&gt;&lt;p style=&quot;text-align: center; margin: 0px; text-indent: 0px; vertical-align: middle; direction: ltr;&quot;&gt;&lt;font face=&quot;Arial&quot;&gt;&lt;span style=&quot;font-size: 11.29px;&quot;&gt;Matrix-APIs&lt;/span&gt;&lt;/font&gt;&lt;/p&gt;&lt;/div&gt;" style="text;vsdxID=455;fillColor=none;gradientColor=none;strokeColor=none;spacingTop=-3;spacingBottom=-3;spacingLeft=-2;spacingRight=-2;points=[];labelBackgroundColor=#ffffff;rounded=0;html=1;whiteSpace=wrap;verticalAlign=middle;align=center;overflow=width;;html=1;" parent="1" vertex="1">
                    <mxGeometry x="1086.47" y="915" width="73.07" height="44.03" as="geometry"/>
                </mxCell>
                <mxCell id="X-0UwtzgqucG9rMq7sj0-455" value="" style="rounded=0;orthogonalLoop=1;jettySize=auto;html=1;endArrow=halfCircle;endFill=0;endSize=6;strokeWidth=1;sketch=0;exitX=-0.015;exitY=0.721;exitDx=0;exitDy=0;exitPerimeter=0;" parent="1" source="X-0UwtzgqucG9rMq7sj0-57" target="X-0UwtzgqucG9rMq7sj0-457" edge="1">
                    <mxGeometry relative="1" as="geometry">
                        <mxPoint x="590" y="620" as="sourcePoint"/>
                        <Array as="points">
                            <mxPoint x="590" y="634"/>
                            <mxPoint x="590" y="760"/>
                        </Array>
                    </mxGeometry>
                </mxCell>
                <mxCell id="X-0UwtzgqucG9rMq7sj0-456" value="" style="rounded=0;orthogonalLoop=1;jettySize=auto;html=1;endArrow=oval;endFill=0;sketch=0;sourcePerimeterSpacing=0;targetPerimeterSpacing=0;endSize=10;exitX=1;exitY=0.5;exitDx=0;exitDy=0;exitPerimeter=0;" parent="1" source="X-0UwtzgqucG9rMq7sj0-21" target="X-0UwtzgqucG9rMq7sj0-457" edge="1">
                    <mxGeometry relative="1" as="geometry">
                        <mxPoint x="500" y="760" as="sourcePoint"/>
                    </mxGeometry>
                </mxCell>
                <mxCell id="X-0UwtzgqucG9rMq7sj0-457" value="" style="ellipse;whiteSpace=wrap;html=1;align=center;aspect=fixed;fillColor=none;strokeColor=none;resizable=0;perimeter=centerPerimeter;rotatable=0;allowArrows=0;points=[];outlineConnect=1;" parent="1" vertex="1">
                    <mxGeometry x="515" y="755" width="10" height="10" as="geometry"/>
                </mxCell>
                <mxCell id="X-0UwtzgqucG9rMq7sj0-458" value="&lt;div style=&quot;font-size: 1px&quot;&gt;&lt;font style=&quot;font-size:11.29px;font-family:Arial;color:#000000;direction:ltr;letter-spacing:0px;line-height:120%;opacity:1&quot;&gt;Push-Gateway-API&lt;br&gt;&lt;/font&gt;&lt;/div&gt;" style="text;vsdxID=400;rotation=359.95;fillColor=none;gradientColor=none;edgeStyle=none;strokeColor=none;spacingTop=-3;spacingBottom=-3;spacingLeft=-2;spacingRight=-2;points=[];labelBackgroundColor=#ffffff;rounded=0;html=1;whiteSpace=wrap;verticalAlign=middle;align=center;overflow=width;;html=1;" parent="1" vertex="1">
                    <mxGeometry x="489.09" y="694" width="61.81" height="61.81" as="geometry"/>
                </mxCell>
                <mxCell id="X-0UwtzgqucG9rMq7sj0-459" value="" style="endArrow=none;html=1;rounded=0;entryX=-0.009;entryY=0.529;entryDx=0;entryDy=0;entryPerimeter=0;" parent="1" target="X-0UwtzgqucG9rMq7sj0-331" edge="1">
                    <mxGeometry width="50" height="50" relative="1" as="geometry">
                        <mxPoint x="530" y="760" as="sourcePoint"/>
                        <mxPoint x="570" y="810" as="targetPoint"/>
                        <Array as="points">
                            <mxPoint x="590" y="760"/>
                            <mxPoint x="590" y="930"/>
                        </Array>
                    </mxGeometry>
                </mxCell>
                <mxCell id="X-0UwtzgqucG9rMq7sj0-460" value="" style="rounded=0;orthogonalLoop=1;jettySize=auto;html=1;endArrow=halfCircle;endFill=0;endSize=6;strokeWidth=1;sketch=0;exitX=-0.015;exitY=0.182;exitDx=0;exitDy=0;exitPerimeter=0;" parent="1" source="X-0UwtzgqucG9rMq7sj0-57" target="X-0UwtzgqucG9rMq7sj0-462" edge="1">
                    <mxGeometry relative="1" as="geometry">
                        <mxPoint x="373" y="442" as="sourcePoint"/>
                        <Array as="points">
                            <mxPoint x="470" y="595"/>
                            <mxPoint x="470" y="442"/>
                        </Array>
                    </mxGeometry>
                </mxCell>
                <mxCell id="X-0UwtzgqucG9rMq7sj0-461" value="" style="rounded=0;orthogonalLoop=1;jettySize=auto;html=1;endArrow=oval;endFill=0;sketch=0;sourcePerimeterSpacing=0;targetPerimeterSpacing=0;endSize=10;exitX=1;exitY=0.5;exitDx=0;exitDy=0;exitPerimeter=0;" parent="1" source="X-0UwtzgqucG9rMq7sj0-59" target="X-0UwtzgqucG9rMq7sj0-462" edge="1">
                    <mxGeometry relative="1" as="geometry">
                        <mxPoint x="333" y="442" as="sourcePoint"/>
                    </mxGeometry>
                </mxCell>
                <mxCell id="X-0UwtzgqucG9rMq7sj0-462" value="" style="ellipse;whiteSpace=wrap;html=1;align=center;aspect=fixed;fillColor=none;strokeColor=none;resizable=0;perimeter=centerPerimeter;rotatable=0;allowArrows=0;points=[];outlineConnect=1;" parent="1" vertex="1">
                    <mxGeometry x="258" y="437" width="10" height="10" as="geometry"/>
                </mxCell>
                <mxCell id="X-0UwtzgqucG9rMq7sj0-463" value="" style="rounded=0;orthogonalLoop=1;jettySize=auto;html=1;endArrow=halfCircle;endFill=0;endSize=6;strokeWidth=1;sketch=0;exitX=0.423;exitY=-0.014;exitDx=0;exitDy=0;exitPerimeter=0;" parent="1" source="X-0UwtzgqucG9rMq7sj0-11" target="X-0UwtzgqucG9rMq7sj0-465" edge="1">
                    <mxGeometry relative="1" as="geometry">
                        <mxPoint x="717" y="430" as="sourcePoint"/>
                    </mxGeometry>
                </mxCell>
                <mxCell id="X-0UwtzgqucG9rMq7sj0-464" value="" style="rounded=0;orthogonalLoop=1;jettySize=auto;html=1;endArrow=oval;endFill=0;sketch=0;sourcePerimeterSpacing=0;targetPerimeterSpacing=0;endSize=10;exitX=0.496;exitY=0.995;exitDx=0;exitDy=0;exitPerimeter=0;" parent="1" source="X-0UwtzgqucG9rMq7sj0-140" target="X-0UwtzgqucG9rMq7sj0-465" edge="1">
                    <mxGeometry relative="1" as="geometry">
                        <mxPoint x="717" y="390" as="sourcePoint"/>
                    </mxGeometry>
                </mxCell>
                <mxCell id="X-0UwtzgqucG9rMq7sj0-465" value="" style="ellipse;whiteSpace=wrap;html=1;align=center;aspect=fixed;fillColor=none;strokeColor=none;resizable=0;perimeter=centerPerimeter;rotatable=0;allowArrows=0;points=[];outlineConnect=1;container=0;rotation=90;" parent="1" vertex="1">
                    <mxGeometry x="712" y="405" width="10" height="10" as="geometry"/>
                </mxCell>
                <mxCell id="X-0UwtzgqucG9rMq7sj0-467" value="" style="rounded=0;orthogonalLoop=1;jettySize=auto;html=1;endArrow=halfCircle;endFill=0;endSize=6;strokeWidth=1;sketch=0;exitX=1;exitY=0.5;exitDx=0;exitDy=0;exitPerimeter=0;" parent="1" source="X-0UwtzgqucG9rMq7sj0-58" target="X-0UwtzgqucG9rMq7sj0-469" edge="1">
                    <mxGeometry relative="1" as="geometry">
                        <mxPoint x="440" y="583" as="sourcePoint"/>
                        <Array as="points">
                            <mxPoint x="417" y="601"/>
                            <mxPoint x="420" y="110"/>
                        </Array>
                    </mxGeometry>
                </mxCell>
                <mxCell id="X-0UwtzgqucG9rMq7sj0-468" value="" style="rounded=0;orthogonalLoop=1;jettySize=auto;html=1;endArrow=oval;endFill=0;sketch=0;sourcePerimeterSpacing=0;targetPerimeterSpacing=0;endSize=10;exitX=-0.001;exitY=0.212;exitDx=0;exitDy=0;exitPerimeter=0;" parent="1" source="X-0UwtzgqucG9rMq7sj0-251" target="X-0UwtzgqucG9rMq7sj0-469" edge="1">
                    <mxGeometry relative="1" as="geometry">
                        <mxPoint x="1019" y="105" as="sourcePoint"/>
                    </mxGeometry>
                </mxCell>
                <mxCell id="X-0UwtzgqucG9rMq7sj0-469" value="" style="ellipse;whiteSpace=wrap;html=1;align=center;aspect=fixed;fillColor=none;strokeColor=none;resizable=0;perimeter=centerPerimeter;rotatable=0;allowArrows=0;points=[];outlineConnect=1;rotation=-180;" parent="1" vertex="1">
                    <mxGeometry x="994" y="100" width="10" height="10" as="geometry"/>
                </mxCell>
                <mxCell id="X-0UwtzgqucG9rMq7sj0-470" value="" style="rounded=0;orthogonalLoop=1;jettySize=auto;html=1;endArrow=halfCircle;endFill=0;endSize=6;strokeWidth=1;sketch=0;exitX=1.013;exitY=0.171;exitDx=0;exitDy=0;exitPerimeter=0;" parent="1" source="X-0UwtzgqucG9rMq7sj0-60" target="X-0UwtzgqucG9rMq7sj0-472" edge="1">
                    <mxGeometry relative="1" as="geometry">
                        <mxPoint x="981" y="133" as="sourcePoint"/>
                        <Array as="points">
                            <mxPoint x="360" y="320"/>
                            <mxPoint x="360" y="140"/>
                        </Array>
                    </mxGeometry>
                </mxCell>
                <mxCell id="X-0UwtzgqucG9rMq7sj0-471" value="" style="rounded=0;orthogonalLoop=1;jettySize=auto;html=1;endArrow=oval;endFill=0;sketch=0;sourcePerimeterSpacing=0;targetPerimeterSpacing=0;endSize=10;exitX=-0.008;exitY=0.357;exitDx=0;exitDy=0;exitPerimeter=0;" parent="1" source="X-0UwtzgqucG9rMq7sj0-251" target="X-0UwtzgqucG9rMq7sj0-472" edge="1">
                    <mxGeometry relative="1" as="geometry">
                        <mxPoint x="1021" y="133" as="sourcePoint"/>
                    </mxGeometry>
                </mxCell>
                <mxCell id="X-0UwtzgqucG9rMq7sj0-472" value="" style="ellipse;whiteSpace=wrap;html=1;align=center;aspect=fixed;fillColor=none;strokeColor=none;resizable=0;perimeter=centerPerimeter;rotatable=0;allowArrows=0;points=[];outlineConnect=1;rotation=-180;" parent="1" vertex="1">
                    <mxGeometry x="996" y="128" width="10" height="10" as="geometry"/>
                </mxCell>
                <mxCell id="X-0UwtzgqucG9rMq7sj0-473" value="" style="rounded=0;orthogonalLoop=1;jettySize=auto;html=1;endArrow=halfCircle;endFill=0;endSize=6;strokeWidth=1;sketch=0;exitX=0.997;exitY=0.139;exitDx=0;exitDy=0;exitPerimeter=0;" parent="1" source="X-0UwtzgqucG9rMq7sj0-58" edge="1">
                    <mxGeometry relative="1" as="geometry">
                        <mxPoint x="981" y="159" as="sourcePoint"/>
                        <mxPoint x="1001" y="159" as="targetPoint"/>
                        <Array as="points">
                            <mxPoint x="380" y="571"/>
                            <mxPoint x="380" y="160"/>
                        </Array>
                    </mxGeometry>
                </mxCell>
                <mxCell id="X-0UwtzgqucG9rMq7sj0-474" value="" style="rounded=0;orthogonalLoop=1;jettySize=auto;html=1;endArrow=oval;endFill=0;sketch=0;sourcePerimeterSpacing=0;targetPerimeterSpacing=0;endSize=10;exitX=-0.009;exitY=0.663;exitDx=0;exitDy=0;exitPerimeter=0;" parent="1" edge="1">
                    <mxGeometry relative="1" as="geometry">
                        <mxPoint x="1045.7220000000002" y="158.84199999999998" as="sourcePoint"/>
                        <mxPoint x="1001" y="159" as="targetPoint"/>
                    </mxGeometry>
                </mxCell>
                <mxCell id="X-0UwtzgqucG9rMq7sj0-475" value="" style="ellipse;whiteSpace=wrap;html=1;align=center;aspect=fixed;fillColor=none;strokeColor=none;resizable=0;perimeter=centerPerimeter;rotatable=0;allowArrows=0;points=[];outlineConnect=1;rotation=-180;" parent="1" vertex="1">
                    <mxGeometry x="996" y="150" width="10" height="10" as="geometry"/>
                </mxCell>
                <mxCell id="X-0UwtzgqucG9rMq7sj0-476" value="" style="rounded=0;orthogonalLoop=1;jettySize=auto;html=1;endArrow=halfCircle;endFill=0;endSize=6;strokeWidth=1;sketch=0;exitX=-0.001;exitY=0.158;exitDx=0;exitDy=0;exitPerimeter=0;" parent="1" source="X-0UwtzgqucG9rMq7sj0-11" target="X-0UwtzgqucG9rMq7sj0-478" edge="1">
                    <mxGeometry relative="1" as="geometry">
                        <mxPoint x="636" y="510" as="sourcePoint"/>
                        <Array as="points">
                            <mxPoint x="570" y="490"/>
                            <mxPoint x="570" y="213"/>
                        </Array>
                    </mxGeometry>
                </mxCell>
                <mxCell id="X-0UwtzgqucG9rMq7sj0-477" value="" style="rounded=0;orthogonalLoop=1;jettySize=auto;html=1;endArrow=oval;endFill=0;sketch=0;sourcePerimeterSpacing=0;targetPerimeterSpacing=0;endSize=10;exitX=-0.004;exitY=0.797;exitDx=0;exitDy=0;exitPerimeter=0;" parent="1" source="X-0UwtzgqucG9rMq7sj0-251" target="X-0UwtzgqucG9rMq7sj0-478" edge="1">
                    <mxGeometry relative="1" as="geometry">
                        <mxPoint x="1021" y="185" as="sourcePoint"/>
                    </mxGeometry>
                </mxCell>
                <mxCell id="X-0UwtzgqucG9rMq7sj0-478" value="" style="ellipse;whiteSpace=wrap;html=1;align=center;aspect=fixed;fillColor=none;strokeColor=none;resizable=0;perimeter=centerPerimeter;rotatable=0;allowArrows=0;points=[];outlineConnect=1;rotation=-180;" parent="1" vertex="1">
                    <mxGeometry x="996" y="208" width="10" height="10" as="geometry"/>
                </mxCell>
                <mxCell id="X-0UwtzgqucG9rMq7sj0-479" value="" style="rounded=0;orthogonalLoop=1;jettySize=auto;html=1;endArrow=halfCircle;endFill=0;endSize=6;strokeWidth=1;sketch=0;exitX=0.996;exitY=0.27;exitDx=0;exitDy=0;exitPerimeter=0;" parent="1" source="X-0UwtzgqucG9rMq7sj0-140" target="X-0UwtzgqucG9rMq7sj0-481" edge="1">
                    <mxGeometry relative="1" as="geometry">
                        <mxPoint x="800" y="246" as="sourcePoint"/>
                    </mxGeometry>
                </mxCell>
                <mxCell id="X-0UwtzgqucG9rMq7sj0-480" value="" style="rounded=0;orthogonalLoop=1;jettySize=auto;html=1;endArrow=oval;endFill=0;sketch=0;sourcePerimeterSpacing=0;targetPerimeterSpacing=0;endSize=10;exitX=-0.002;exitY=0.496;exitDx=0;exitDy=0;exitPerimeter=0;" parent="1" source="X-0UwtzgqucG9rMq7sj0-29" target="X-0UwtzgqucG9rMq7sj0-481" edge="1">
                    <mxGeometry relative="1" as="geometry">
                        <mxPoint x="840" y="246" as="sourcePoint"/>
                    </mxGeometry>
                </mxCell>
                <mxCell id="X-0UwtzgqucG9rMq7sj0-481" value="" style="ellipse;whiteSpace=wrap;html=1;align=center;aspect=fixed;fillColor=none;strokeColor=none;resizable=0;perimeter=centerPerimeter;rotatable=0;allowArrows=0;points=[];outlineConnect=1;rotation=-180;" parent="1" vertex="1">
                    <mxGeometry x="815" y="261" width="10" height="10" as="geometry"/>
                </mxCell>
                <mxCell id="X-0UwtzgqucG9rMq7sj0-482" value="" style="rounded=0;orthogonalLoop=1;jettySize=auto;html=1;endArrow=halfCircle;endFill=0;endSize=6;strokeWidth=1;sketch=0;exitX=1;exitY=0.5;exitDx=0;exitDy=0;exitPerimeter=0;" parent="1" source="X-0UwtzgqucG9rMq7sj0-140" target="X-0UwtzgqucG9rMq7sj0-484" edge="1">
                    <mxGeometry relative="1" as="geometry">
                        <mxPoint x="1210" y="280" as="sourcePoint"/>
                    </mxGeometry>
                </mxCell>
                <mxCell id="X-0UwtzgqucG9rMq7sj0-483" value="" style="rounded=0;orthogonalLoop=1;jettySize=auto;html=1;endArrow=oval;endFill=0;sketch=0;sourcePerimeterSpacing=0;targetPerimeterSpacing=0;endSize=10;exitX=0.014;exitY=0.415;exitDx=0;exitDy=0;exitPerimeter=0;" parent="1" source="X-0UwtzgqucG9rMq7sj0-352" target="X-0UwtzgqucG9rMq7sj0-484" edge="1">
                    <mxGeometry relative="1" as="geometry">
                        <mxPoint x="1300" y="300" as="sourcePoint"/>
                    </mxGeometry>
                </mxCell>
                <mxCell id="X-0UwtzgqucG9rMq7sj0-484" value="" style="ellipse;whiteSpace=wrap;html=1;align=center;aspect=fixed;fillColor=none;strokeColor=none;resizable=0;perimeter=centerPerimeter;rotatable=0;allowArrows=0;points=[];outlineConnect=1;rotation=-180;" parent="1" vertex="1">
                    <mxGeometry x="1225" y="295" width="10" height="10" as="geometry"/>
                </mxCell>
                <mxCell id="X-0UwtzgqucG9rMq7sj0-485" value="" style="rounded=0;orthogonalLoop=1;jettySize=auto;html=1;endArrow=halfCircle;endFill=0;endSize=6;strokeWidth=1;sketch=0;exitX=0.529;exitY=0.027;exitDx=0;exitDy=0;exitPerimeter=0;" parent="1" source="X-0UwtzgqucG9rMq7sj0-352" target="X-0UwtzgqucG9rMq7sj0-487" edge="1">
                    <mxGeometry relative="1" as="geometry">
                        <mxPoint x="1368" y="260" as="sourcePoint"/>
                    </mxGeometry>
                </mxCell>
                <mxCell id="X-0UwtzgqucG9rMq7sj0-486" value="" style="rounded=0;orthogonalLoop=1;jettySize=auto;html=1;endArrow=oval;endFill=0;sketch=0;sourcePerimeterSpacing=0;targetPerimeterSpacing=0;endSize=10;exitX=0.493;exitY=1.014;exitDx=0;exitDy=0;exitPerimeter=0;" parent="1" source="X-0UwtzgqucG9rMq7sj0-351" target="X-0UwtzgqucG9rMq7sj0-487" edge="1">
                    <mxGeometry relative="1" as="geometry">
                        <mxPoint x="1367" y="165" as="sourcePoint"/>
                    </mxGeometry>
                </mxCell>
                <mxCell id="X-0UwtzgqucG9rMq7sj0-487" value="" style="ellipse;whiteSpace=wrap;html=1;align=center;aspect=fixed;fillColor=none;strokeColor=none;resizable=0;perimeter=centerPerimeter;rotatable=0;allowArrows=0;points=[];outlineConnect=1;container=0;rotation=90;" parent="1" vertex="1">
                    <mxGeometry x="1362" y="180" width="10" height="10" as="geometry"/>
                </mxCell>
                <mxCell id="X-0UwtzgqucG9rMq7sj0-488" value="&lt;div style=&quot;font-size: 1px&quot;&gt;&lt;font style=&quot;font-size:11.29px;font-family:Arial;color:#000000;direction:ltr;letter-spacing:0px;line-height:120%;opacity:1&quot;&gt;Sync&lt;br&gt;&lt;/font&gt;&lt;/div&gt;" style="text;vsdxID=400;rotation=359.95;fillColor=none;gradientColor=none;edgeStyle=none;strokeColor=none;spacingTop=-3;spacingBottom=-3;spacingLeft=-2;spacingRight=-2;points=[];labelBackgroundColor=#ffffff;rounded=0;html=1;whiteSpace=wrap;verticalAlign=middle;align=center;overflow=width;;html=1;" parent="1" vertex="1">
                    <mxGeometry x="1199.1" y="290" width="61.81" height="61.81" as="geometry"/>
                </mxCell>
                <mxCell id="X-0UwtzgqucG9rMq7sj0-489" value="" style="rounded=0;orthogonalLoop=1;jettySize=auto;html=1;endArrow=halfCircle;endFill=0;endSize=6;strokeWidth=1;sketch=0;exitX=1.01;exitY=0.883;exitDx=0;exitDy=0;exitPerimeter=0;" parent="1" edge="1">
                    <mxGeometry relative="1" as="geometry">
                        <mxPoint x="1009" y="649" as="sourcePoint"/>
                        <mxPoint x="1121" y="649" as="targetPoint"/>
                    </mxGeometry>
                </mxCell>
                <mxCell id="X-0UwtzgqucG9rMq7sj0-490" value="" style="rounded=0;orthogonalLoop=1;jettySize=auto;html=1;endArrow=oval;endFill=0;sketch=0;sourcePerimeterSpacing=0;targetPerimeterSpacing=0;endSize=10;exitX=-0.001;exitY=0.366;exitDx=0;exitDy=0;exitPerimeter=0;" parent="1" source="X-0UwtzgqucG9rMq7sj0-13" edge="1">
                    <mxGeometry relative="1" as="geometry">
                        <mxPoint x="1288" y="649" as="sourcePoint"/>
                        <mxPoint x="1121" y="649" as="targetPoint"/>
                    </mxGeometry>
                </mxCell>
                <mxCell id="X-0UwtzgqucG9rMq7sj0-491" value="&lt;div style=&quot;font-size: 1px&quot;&gt;&lt;p style=&quot;text-align:center;margin-left:0;margin-right:0;margin-top:0px;margin-bottom:0px;text-indent:0;vertical-align:middle;direction:ltr;&quot;&gt;&lt;span style=&quot;font-family: Arial; font-size: 11.29px; letter-spacing: 0px;&quot;&gt;Matrix-APIs&lt;/span&gt;&lt;/p&gt;&lt;/div&gt;" style="text;vsdxID=455;fillColor=none;gradientColor=none;strokeColor=none;spacingTop=-3;spacingBottom=-3;spacingLeft=-2;spacingRight=-2;points=[];labelBackgroundColor=#ffffff;rounded=0;html=1;whiteSpace=wrap;verticalAlign=middle;align=center;overflow=width;;html=1;" parent="1" vertex="1">
                    <mxGeometry x="1087" y="605" width="73.07" height="44.03" as="geometry"/>
                </mxCell>
                <mxCell id="X-0UwtzgqucG9rMq7sj0-492" value="" style="rounded=0;orthogonalLoop=1;jettySize=auto;html=1;endArrow=halfCircle;endFill=0;endSize=6;strokeWidth=1;sketch=0;exitX=-0.012;exitY=0.825;exitDx=0;exitDy=0;exitPerimeter=0;" parent="1" source="X-0UwtzgqucG9rMq7sj0-57" target="X-0UwtzgqucG9rMq7sj0-494" edge="1">
                    <mxGeometry relative="1" as="geometry">
                        <mxPoint x="883" y="632" as="sourcePoint"/>
                        <Array as="points">
                            <mxPoint x="882" y="642"/>
                        </Array>
                    </mxGeometry>
                </mxCell>
                <mxCell id="X-0UwtzgqucG9rMq7sj0-493" value="" style="rounded=0;orthogonalLoop=1;jettySize=auto;html=1;endArrow=oval;endFill=0;sketch=0;sourcePerimeterSpacing=0;targetPerimeterSpacing=0;endSize=10;" parent="1" target="X-0UwtzgqucG9rMq7sj0-494" edge="1">
                    <mxGeometry relative="1" as="geometry">
                        <mxPoint x="883" y="672" as="sourcePoint"/>
                    </mxGeometry>
                </mxCell>
                <mxCell id="X-0UwtzgqucG9rMq7sj0-494" value="" style="ellipse;whiteSpace=wrap;html=1;align=center;aspect=fixed;fillColor=none;strokeColor=none;resizable=0;perimeter=centerPerimeter;rotatable=0;allowArrows=0;points=[];outlineConnect=1;rotation=-90;container=0;" parent="1" vertex="1">
                    <mxGeometry x="878" y="654" width="10" height="10" as="geometry"/>
                </mxCell>
                <mxCell id="X-0UwtzgqucG9rMq7sj0-495" value="" style="rounded=0;orthogonalLoop=1;jettySize=auto;html=1;endArrow=halfCircle;endFill=0;endSize=6;strokeWidth=1;sketch=0;exitX=-0.01;exitY=0.244;exitDx=0;exitDy=0;exitPerimeter=0;" parent="1" source="X-0UwtzgqucG9rMq7sj0-331" target="X-0UwtzgqucG9rMq7sj0-497" edge="1">
                    <mxGeometry relative="1" as="geometry">
                        <mxPoint x="895" y="918" as="sourcePoint"/>
                        <Array as="points">
                            <mxPoint x="895" y="911"/>
                        </Array>
                    </mxGeometry>
                </mxCell>
                <mxCell id="X-0UwtzgqucG9rMq7sj0-496" value="" style="rounded=0;orthogonalLoop=1;jettySize=auto;html=1;endArrow=oval;endFill=0;sketch=0;sourcePerimeterSpacing=0;targetPerimeterSpacing=0;endSize=10;" parent="1" target="X-0UwtzgqucG9rMq7sj0-497" edge="1">
                    <mxGeometry relative="1" as="geometry">
                        <mxPoint x="895" y="878" as="sourcePoint"/>
                    </mxGeometry>
                </mxCell>
                <mxCell id="X-0UwtzgqucG9rMq7sj0-497" value="" style="ellipse;whiteSpace=wrap;html=1;align=center;aspect=fixed;fillColor=none;strokeColor=none;resizable=0;perimeter=centerPerimeter;rotatable=0;allowArrows=0;points=[];outlineConnect=1;container=0;rotation=90;" parent="1" vertex="1">
                    <mxGeometry x="890" y="893" width="10" height="10" as="geometry"/>
                </mxCell>
                <mxCell id="X-0UwtzgqucG9rMq7sj0-498" value="" style="rounded=0;orthogonalLoop=1;jettySize=auto;html=1;endArrow=halfCircle;endFill=0;endSize=6;strokeWidth=1;sketch=0;exitX=1;exitY=0.048;exitDx=0;exitDy=0;exitPerimeter=0;" parent="1" source="X-0UwtzgqucG9rMq7sj0-11" target="X-0UwtzgqucG9rMq7sj0-500" edge="1">
                    <mxGeometry relative="1" as="geometry">
                        <mxPoint x="999" y="427" as="sourcePoint"/>
                        <Array as="points">
                            <mxPoint x="930" y="483"/>
                        </Array>
                    </mxGeometry>
                </mxCell>
                <mxCell id="X-0UwtzgqucG9rMq7sj0-499" value="" style="rounded=0;orthogonalLoop=1;jettySize=auto;html=1;endArrow=oval;endFill=0;sketch=0;sourcePerimeterSpacing=0;targetPerimeterSpacing=0;endSize=10;exitX=-0.005;exitY=0.488;exitDx=0;exitDy=0;exitPerimeter=0;" parent="1" source="X-0UwtzgqucG9rMq7sj0-272" target="X-0UwtzgqucG9rMq7sj0-500" edge="1">
                    <mxGeometry relative="1" as="geometry">
                        <mxPoint x="999" y="387" as="sourcePoint"/>
                        <Array as="points">
                            <mxPoint x="930" y="343"/>
                        </Array>
                    </mxGeometry>
                </mxCell>
                <mxCell id="X-0UwtzgqucG9rMq7sj0-500" value="" style="ellipse;whiteSpace=wrap;html=1;align=center;aspect=fixed;fillColor=none;strokeColor=none;resizable=0;perimeter=centerPerimeter;rotatable=0;allowArrows=0;points=[];outlineConnect=1;container=0;rotation=90;" parent="1" vertex="1">
                    <mxGeometry x="925" y="397" width="10" height="10" as="geometry"/>
                </mxCell>
                <mxCell id="X-0UwtzgqucG9rMq7sj0-503" value="" style="rounded=0;orthogonalLoop=1;jettySize=auto;html=1;endArrow=halfCircle;endFill=0;endSize=6;strokeWidth=1;sketch=0;exitX=1.001;exitY=0.861;exitDx=0;exitDy=0;exitPerimeter=0;" parent="1" source="X-0UwtzgqucG9rMq7sj0-60" target="X-0UwtzgqucG9rMq7sj0-505" edge="1">
                    <mxGeometry relative="1" as="geometry">
                        <mxPoint x="553" y="525" as="sourcePoint"/>
                        <Array as="points">
                            <mxPoint x="500" y="360"/>
                            <mxPoint x="499" y="527"/>
                        </Array>
                    </mxGeometry>
                </mxCell>
                <mxCell id="X-0UwtzgqucG9rMq7sj0-504" value="" style="rounded=0;orthogonalLoop=1;jettySize=auto;html=1;endArrow=oval;endFill=0;sketch=0;sourcePerimeterSpacing=0;targetPerimeterSpacing=0;endSize=10;exitX=-0.005;exitY=0.763;exitDx=0;exitDy=0;exitPerimeter=0;" parent="1" source="X-0UwtzgqucG9rMq7sj0-11" target="X-0UwtzgqucG9rMq7sj0-505" edge="1">
                    <mxGeometry relative="1" as="geometry">
                        <mxPoint x="635" y="510" as="sourcePoint"/>
                    </mxGeometry>
                </mxCell>
                <mxCell id="X-0UwtzgqucG9rMq7sj0-505" value="" style="ellipse;whiteSpace=wrap;html=1;align=center;aspect=fixed;fillColor=none;strokeColor=none;resizable=0;perimeter=centerPerimeter;rotatable=0;allowArrows=0;points=[];outlineConnect=1;rotation=-180;" parent="1" vertex="1">
                    <mxGeometry x="566" y="521.5" width="10" height="10" as="geometry"/>
                </mxCell>
                <mxCell id="X-0UwtzgqucG9rMq7sj0-506" value="" style="rounded=0;orthogonalLoop=1;jettySize=auto;html=1;endArrow=halfCircle;endFill=0;endSize=6;strokeWidth=1;sketch=0;exitX=0;exitY=0.958;exitDx=0;exitDy=0;exitPerimeter=0;" parent="1" source="X-0UwtzgqucG9rMq7sj0-11" target="X-0UwtzgqucG9rMq7sj0-508" edge="1">
                    <mxGeometry relative="1" as="geometry">
                        <mxPoint x="453" y="860" as="sourcePoint"/>
                        <Array as="points">
                            <mxPoint x="560" y="538"/>
                            <mxPoint x="560" y="860"/>
                        </Array>
                    </mxGeometry>
                </mxCell>
                <mxCell id="X-0UwtzgqucG9rMq7sj0-507" value="" style="rounded=0;orthogonalLoop=1;jettySize=auto;html=1;endArrow=oval;endFill=0;sketch=0;sourcePerimeterSpacing=0;targetPerimeterSpacing=0;endSize=10;exitX=1;exitY=0.5;exitDx=0;exitDy=0;exitPerimeter=0;" parent="1" source="X-0UwtzgqucG9rMq7sj0-92" target="X-0UwtzgqucG9rMq7sj0-508" edge="1">
                    <mxGeometry relative="1" as="geometry">
                        <mxPoint x="413" y="860" as="sourcePoint"/>
                    </mxGeometry>
                </mxCell>
                <mxCell id="X-0UwtzgqucG9rMq7sj0-508" value="" style="ellipse;whiteSpace=wrap;html=1;align=center;aspect=fixed;fillColor=none;strokeColor=none;resizable=0;perimeter=centerPerimeter;rotatable=0;allowArrows=0;points=[];outlineConnect=1;" parent="1" vertex="1">
                    <mxGeometry x="428" y="855" width="10" height="10" as="geometry"/>
                </mxCell>
                <mxCell id="X-0UwtzgqucG9rMq7sj0-509" value="" style="rounded=0;orthogonalLoop=1;jettySize=auto;html=1;endArrow=halfCircle;endFill=0;endSize=6;strokeWidth=1;sketch=0;exitX=1.008;exitY=0.907;exitDx=0;exitDy=0;exitPerimeter=0;" parent="1" source="X-0UwtzgqucG9rMq7sj0-58" target="X-0UwtzgqucG9rMq7sj0-511" edge="1">
                    <mxGeometry relative="1" as="geometry">
                        <mxPoint x="375" y="790" as="sourcePoint"/>
                        <Array as="points">
                            <mxPoint x="375" y="635"/>
                        </Array>
                    </mxGeometry>
                </mxCell>
                <mxCell id="X-0UwtzgqucG9rMq7sj0-510" value="" style="rounded=0;orthogonalLoop=1;jettySize=auto;html=1;endArrow=oval;endFill=0;sketch=0;sourcePerimeterSpacing=0;targetPerimeterSpacing=0;endSize=10;exitX=0.806;exitY=-0.016;exitDx=0;exitDy=0;exitPerimeter=0;" parent="1" source="X-0UwtzgqucG9rMq7sj0-92" target="X-0UwtzgqucG9rMq7sj0-511" edge="1">
                    <mxGeometry relative="1" as="geometry">
                        <mxPoint x="375" y="830" as="sourcePoint"/>
                    </mxGeometry>
                </mxCell>
                <mxCell id="X-0UwtzgqucG9rMq7sj0-511" value="" style="ellipse;whiteSpace=wrap;html=1;align=center;aspect=fixed;fillColor=none;strokeColor=none;resizable=0;perimeter=centerPerimeter;rotatable=0;allowArrows=0;points=[];outlineConnect=1;rotation=-90;container=0;" parent="1" vertex="1">
                    <mxGeometry x="370" y="805" width="10" height="10" as="geometry"/>
                </mxCell>
                <mxCell id="X-0UwtzgqucG9rMq7sj0-512" value="" style="rounded=0;orthogonalLoop=1;jettySize=auto;html=1;endArrow=halfCircle;endFill=0;endSize=6;strokeWidth=1;sketch=0;exitX=1.001;exitY=0.786;exitDx=0;exitDy=0;exitPerimeter=0;" parent="1" source="X-0UwtzgqucG9rMq7sj0-58" target="X-0UwtzgqucG9rMq7sj0-514" edge="1">
                    <mxGeometry relative="1" as="geometry">
                        <mxPoint x="875" y="619" as="sourcePoint"/>
                    </mxGeometry>
                </mxCell>
                <mxCell id="X-0UwtzgqucG9rMq7sj0-513" value="" style="rounded=0;orthogonalLoop=1;jettySize=auto;html=1;endArrow=oval;endFill=0;sketch=0;sourcePerimeterSpacing=0;targetPerimeterSpacing=0;endSize=10;exitX=-0.012;exitY=0.567;exitDx=0;exitDy=0;exitPerimeter=0;" parent="1" source="X-0UwtzgqucG9rMq7sj0-57" target="X-0UwtzgqucG9rMq7sj0-514" edge="1">
                    <mxGeometry relative="1" as="geometry">
                        <mxPoint x="915" y="619" as="sourcePoint"/>
                    </mxGeometry>
                </mxCell>
                <mxCell id="X-0UwtzgqucG9rMq7sj0-514" value="" style="ellipse;whiteSpace=wrap;html=1;align=center;aspect=fixed;fillColor=none;strokeColor=none;resizable=0;perimeter=centerPerimeter;rotatable=0;allowArrows=0;points=[];outlineConnect=1;rotation=-180;" parent="1" vertex="1">
                    <mxGeometry x="890" y="619" width="10" height="10" as="geometry"/>
                </mxCell>
                <mxCell id="X-0UwtzgqucG9rMq7sj0-515" value="" style="rounded=0;orthogonalLoop=1;jettySize=auto;html=1;endArrow=halfCircle;endFill=0;endSize=6;strokeWidth=1;sketch=0;exitX=1.006;exitY=0.148;exitDx=0;exitDy=0;exitPerimeter=0;" parent="1" source="X-0UwtzgqucG9rMq7sj0-57" target="X-0UwtzgqucG9rMq7sj0-517" edge="1">
                    <mxGeometry relative="1" as="geometry">
                        <mxPoint x="888" y="521" as="sourcePoint"/>
                        <Array as="points">
                            <mxPoint x="1050" y="594"/>
                            <mxPoint x="1050" y="534"/>
                        </Array>
                    </mxGeometry>
                </mxCell>
                <mxCell id="X-0UwtzgqucG9rMq7sj0-516" value="" style="rounded=0;orthogonalLoop=1;jettySize=auto;html=1;endArrow=oval;endFill=0;sketch=0;sourcePerimeterSpacing=0;targetPerimeterSpacing=0;endSize=10;exitX=0.995;exitY=0.899;exitDx=0;exitDy=0;exitPerimeter=0;" parent="1" source="X-0UwtzgqucG9rMq7sj0-11" target="X-0UwtzgqucG9rMq7sj0-517" edge="1">
                    <mxGeometry relative="1" as="geometry">
                        <mxPoint x="848" y="521" as="sourcePoint"/>
                    </mxGeometry>
                </mxCell>
                <mxCell id="X-0UwtzgqucG9rMq7sj0-517" value="" style="ellipse;whiteSpace=wrap;html=1;align=center;aspect=fixed;fillColor=none;strokeColor=none;resizable=0;perimeter=centerPerimeter;rotatable=0;allowArrows=0;points=[];outlineConnect=1;" parent="1" vertex="1">
                    <mxGeometry x="863" y="529" width="10" height="10" as="geometry"/>
                </mxCell>
                <mxCell id="X-0UwtzgqucG9rMq7sj0-518" value="" style="endArrow=none;html=1;rounded=0;exitX=1.016;exitY=0.149;exitDx=0;exitDy=0;exitPerimeter=0;" parent="1" source="X-0UwtzgqucG9rMq7sj0-331" edge="1">
                    <mxGeometry width="50" height="50" relative="1" as="geometry">
                        <mxPoint x="1110" y="870" as="sourcePoint"/>
                        <mxPoint x="1050" y="590" as="targetPoint"/>
                        <Array as="points">
                            <mxPoint x="1050" y="904"/>
                        </Array>
                    </mxGeometry>
                </mxCell>
                <mxCell id="X-0UwtzgqucG9rMq7sj0-519" value="" style="rounded=0;orthogonalLoop=1;jettySize=auto;html=1;endArrow=halfCircle;endFill=0;endSize=6;strokeWidth=1;sketch=0;exitX=0.512;exitY=0.999;exitDx=0;exitDy=0;exitPerimeter=0;" parent="1" source="X-0UwtzgqucG9rMq7sj0-57" target="X-0UwtzgqucG9rMq7sj0-521" edge="1">
                    <mxGeometry relative="1" as="geometry">
                        <mxPoint x="969" y="743" as="sourcePoint"/>
                    </mxGeometry>
                </mxCell>
                <mxCell id="X-0UwtzgqucG9rMq7sj0-520" value="" style="rounded=0;orthogonalLoop=1;jettySize=auto;html=1;endArrow=oval;endFill=0;sketch=0;sourcePerimeterSpacing=0;targetPerimeterSpacing=0;endSize=10;exitX=0.5;exitY=0;exitDx=0;exitDy=0;exitPerimeter=0;" parent="1" source="X-0UwtzgqucG9rMq7sj0-331" target="X-0UwtzgqucG9rMq7sj0-521" edge="1">
                    <mxGeometry relative="1" as="geometry">
                        <mxPoint x="969" y="783" as="sourcePoint"/>
                    </mxGeometry>
                </mxCell>
                <mxCell id="X-0UwtzgqucG9rMq7sj0-521" value="" style="ellipse;whiteSpace=wrap;html=1;align=center;aspect=fixed;fillColor=none;strokeColor=none;resizable=0;perimeter=centerPerimeter;rotatable=0;allowArrows=0;points=[];outlineConnect=1;rotation=-90;container=0;" parent="1" vertex="1">
                    <mxGeometry x="964" y="758" width="10" height="10" as="geometry"/>
                </mxCell>
                <mxCell id="X-0UwtzgqucG9rMq7sj0-522" value="&lt;div style=&quot;font-size: 1px&quot;&gt;&lt;p style=&quot;text-align:center;margin-left:0;margin-right:0;margin-top:0px;margin-bottom:0px;text-indent:0;vertical-align:middle;direction:ltr;&quot;&gt;&lt;font style=&quot;font-size:11.29px;font-family:Arial;color:#000000;direction:ltr;letter-spacing:0px;line-height:120%;opacity:1&quot;&gt;Matrix-Server-&lt;br&gt;&lt;/font&gt;&lt;/p&gt;&lt;p style=&quot;text-align:center;margin-left:0;margin-right:0;margin-top:0px;margin-bottom:0px;text-indent:0;vertical-align:middle;direction:ltr;&quot;&gt;&lt;font style=&quot;font-size:11.29px;font-family:Arial;color:#000000;direction:ltr;letter-spacing:0px;line-height:120%;opacity:1&quot;&gt;Server-API &lt;br&gt;&lt;/font&gt;&lt;font style=&quot;font-size:14.11px;font-family:Arial;color:#000000;direction:ltr;letter-spacing:0px;line-height:120%;opacity:1&quot;&gt;&lt;br&gt;&lt;/font&gt;&lt;/p&gt;&lt;/div&gt;" style="text;vsdxID=455;fillColor=none;gradientColor=none;strokeColor=none;spacingTop=-3;spacingBottom=-3;spacingLeft=-2;spacingRight=-2;points=[];labelBackgroundColor=#ffffff;rounded=0;html=1;whiteSpace=wrap;verticalAlign=middle;align=center;overflow=width;;html=1;" parent="1" vertex="1">
                    <mxGeometry x="878" y="748.98" width="73.07" height="28.03" as="geometry"/>
                </mxCell>
                <mxCell id="X-0UwtzgqucG9rMq7sj0-525" value="" style="ellipse;whiteSpace=wrap;html=1;align=center;aspect=fixed;fillColor=none;strokeColor=none;resizable=0;perimeter=centerPerimeter;rotatable=0;allowArrows=0;points=[];outlineConnect=1;rotation=-180;" parent="1" vertex="1">
                    <mxGeometry x="900" y="934" width="10" height="10" as="geometry"/>
                </mxCell>
                <mxCell id="X-0UwtzgqucG9rMq7sj0-526" value="&lt;div style=&quot;font-size: 1px&quot;&gt;&lt;font style=&quot;font-size:14.11px;font-family:Arial;color:#000000;direction:ltr;letter-spacing:0px;line-height:120%;opacity:1&quot;&gt;User&lt;br&gt;&lt;/font&gt;&lt;/div&gt;" style="text;vsdxID=320;fillColor=none;gradientColor=none;strokeColor=none;strokeWidth=2;spacingTop=-3;spacingBottom=-3;spacingLeft=-2;spacingRight=-2;points=[[0.5,0,0],[1,0.5,0],[0.5,1,0],[0,0.5,0]];labelBackgroundColor=none;rounded=0;html=1;whiteSpace=wrap;verticalAlign=middle;align=center;overflow=width;;html=1;" parent="1" vertex="1">
                    <mxGeometry x="35.230000000000004" y="629" width="47.53" height="16.94" as="geometry"/>
                </mxCell>
                <mxCell id="X-0UwtzgqucG9rMq7sj0-527" value="" style="rounded=0;orthogonalLoop=1;jettySize=auto;html=1;endArrow=halfCircle;endFill=0;endSize=6;strokeWidth=1;sketch=0;exitX=1.001;exitY=0.417;exitDx=0;exitDy=0;exitPerimeter=0;" parent="1" source="X-0UwtzgqucG9rMq7sj0-60" target="X-0UwtzgqucG9rMq7sj0-529" edge="1">
                    <mxGeometry relative="1" as="geometry">
                        <mxPoint x="626" y="270" as="sourcePoint"/>
                        <Array as="points">
                            <mxPoint x="420" y="335"/>
                            <mxPoint x="530" y="335"/>
                            <mxPoint x="530" y="300"/>
                        </Array>
                    </mxGeometry>
                </mxCell>
                <mxCell id="X-0UwtzgqucG9rMq7sj0-528" value="" style="rounded=0;orthogonalLoop=1;jettySize=auto;html=1;endArrow=oval;endFill=0;sketch=0;sourcePerimeterSpacing=0;targetPerimeterSpacing=0;endSize=10;exitX=-0.006;exitY=0.503;exitDx=0;exitDy=0;exitPerimeter=0;" parent="1" source="X-0UwtzgqucG9rMq7sj0-140" target="X-0UwtzgqucG9rMq7sj0-529" edge="1">
                    <mxGeometry relative="1" as="geometry">
                        <mxPoint x="666" y="270" as="sourcePoint"/>
                    </mxGeometry>
                </mxCell>
                <mxCell id="X-0UwtzgqucG9rMq7sj0-529" value="" style="ellipse;whiteSpace=wrap;html=1;align=center;aspect=fixed;fillColor=none;strokeColor=none;resizable=0;perimeter=centerPerimeter;rotatable=0;allowArrows=0;points=[];outlineConnect=1;rotation=-180;" parent="1" vertex="1">
                    <mxGeometry x="641" y="295" width="10" height="10" as="geometry"/>
                </mxCell>
                <mxCell id="X-0UwtzgqucG9rMq7sj0-530" value="" style="rounded=0;orthogonalLoop=1;jettySize=auto;html=1;endArrow=halfCircle;endFill=0;endSize=6;strokeWidth=1;sketch=0;exitX=0.992;exitY=0.621;exitDx=0;exitDy=0;exitPerimeter=0;" parent="1" source="X-0UwtzgqucG9rMq7sj0-58" target="X-0UwtzgqucG9rMq7sj0-532" edge="1">
                    <mxGeometry relative="1" as="geometry">
                        <mxPoint x="626" y="241" as="sourcePoint"/>
                        <Array as="points">
                            <mxPoint x="440" y="610"/>
                            <mxPoint x="440" y="270"/>
                        </Array>
                    </mxGeometry>
                </mxCell>
                <mxCell id="X-0UwtzgqucG9rMq7sj0-531" value="" style="rounded=0;orthogonalLoop=1;jettySize=auto;html=1;endArrow=oval;endFill=0;sketch=0;sourcePerimeterSpacing=0;targetPerimeterSpacing=0;endSize=10;exitX=-0.006;exitY=0.296;exitDx=0;exitDy=0;exitPerimeter=0;" parent="1" source="X-0UwtzgqucG9rMq7sj0-140" target="X-0UwtzgqucG9rMq7sj0-532" edge="1">
                    <mxGeometry relative="1" as="geometry">
                        <mxPoint x="666" y="241" as="sourcePoint"/>
                    </mxGeometry>
                </mxCell>
                <mxCell id="X-0UwtzgqucG9rMq7sj0-532" value="" style="ellipse;whiteSpace=wrap;html=1;align=center;aspect=fixed;fillColor=none;strokeColor=none;resizable=0;perimeter=centerPerimeter;rotatable=0;allowArrows=0;points=[];outlineConnect=1;rotation=-180;" parent="1" vertex="1">
                    <mxGeometry x="641" y="266" width="10" height="10" as="geometry"/>
                </mxCell>
                <mxCell id="X-0UwtzgqucG9rMq7sj0-533" value="" style="endArrow=none;html=1;rounded=0;exitX=1.001;exitY=0.005;exitDx=0;exitDy=0;exitPerimeter=0;" parent="1" source="X-0UwtzgqucG9rMq7sj0-58" edge="1">
                    <mxGeometry width="50" height="50" relative="1" as="geometry">
                        <mxPoint x="240" y="580" as="sourcePoint"/>
                        <mxPoint x="360" y="320" as="targetPoint"/>
                        <Array as="points">
                            <mxPoint x="360" y="560"/>
                        </Array>
                    </mxGeometry>
                </mxCell>
                <mxCell id="X-0UwtzgqucG9rMq7sj0-536" value="" style="rounded=0;orthogonalLoop=1;jettySize=auto;html=1;endArrow=halfCircle;endFill=0;endSize=6;strokeWidth=1;sketch=0;exitX=0.997;exitY=0.119;exitDx=0;exitDy=0;exitPerimeter=0;" parent="1" source="X-0UwtzgqucG9rMq7sj0-11" target="X-0UwtzgqucG9rMq7sj0-538" edge="1">
                    <mxGeometry relative="1" as="geometry">
                        <mxPoint x="1367" y="337" as="sourcePoint"/>
                        <Array as="points">
                            <mxPoint x="1219" y="486"/>
                            <mxPoint x="1220" y="360"/>
                            <mxPoint x="1367" y="360"/>
                        </Array>
                    </mxGeometry>
                </mxCell>
                <mxCell id="X-0UwtzgqucG9rMq7sj0-537" value="" style="rounded=0;orthogonalLoop=1;jettySize=auto;html=1;endArrow=oval;endFill=0;sketch=0;sourcePerimeterSpacing=0;targetPerimeterSpacing=0;endSize=10;" parent="1" target="X-0UwtzgqucG9rMq7sj0-538" edge="1">
                    <mxGeometry relative="1" as="geometry">
                        <mxPoint x="1366" y="318" as="sourcePoint"/>
                    </mxGeometry>
                </mxCell>
                <mxCell id="X-0UwtzgqucG9rMq7sj0-538" value="" style="ellipse;whiteSpace=wrap;html=1;align=center;aspect=fixed;fillColor=none;strokeColor=none;resizable=0;perimeter=centerPerimeter;rotatable=0;allowArrows=0;points=[];outlineConnect=1;container=0;rotation=90;" parent="1" vertex="1">
                    <mxGeometry x="1362" y="334" width="10" height="10" as="geometry"/>
                </mxCell>
                <mxCell id="X-0UwtzgqucG9rMq7sj0-539" value="&lt;div style=&quot;font-size: 1px&quot;&gt;&lt;p style=&quot;text-align:center;margin-left:0;margin-right:0;margin-top:0px;margin-bottom:0px;text-indent:0;vertical-align:middle;direction:ltr;&quot;&gt;&lt;span style=&quot;font-family: Arial; font-size: 11.29px; letter-spacing: 0px;&quot;&gt;Registrierung via KIM&amp;nbsp;&lt;/span&gt;&lt;/p&gt;&lt;/div&gt;" style="text;vsdxID=455;fillColor=none;gradientColor=none;strokeColor=none;spacingTop=-3;spacingBottom=-3;spacingLeft=-2;spacingRight=-2;points=[];labelBackgroundColor=#ffffff;rounded=0;html=1;whiteSpace=wrap;verticalAlign=middle;align=center;overflow=width;;html=1;" parent="1" vertex="1">
                    <mxGeometry x="1128" y="439.97" width="73.07" height="44.03" as="geometry"/>
                </mxCell>
                <mxCell id="X-0UwtzgqucG9rMq7sj0-540" value="" style="rounded=0;orthogonalLoop=1;jettySize=auto;html=1;endArrow=halfCircle;endFill=0;endSize=6;strokeWidth=1;sketch=0;exitX=0.987;exitY=0.257;exitDx=0;exitDy=0;exitPerimeter=0;" parent="1" source="X-0UwtzgqucG9rMq7sj0-58" target="X-0UwtzgqucG9rMq7sj0-542" edge="1">
                    <mxGeometry relative="1" as="geometry">
                        <mxPoint x="981" y="185" as="sourcePoint"/>
                        <Array as="points">
                            <mxPoint x="400" y="580"/>
                            <mxPoint x="400" y="185"/>
                        </Array>
                    </mxGeometry>
                </mxCell>
                <mxCell id="X-0UwtzgqucG9rMq7sj0-541" value="" style="rounded=0;orthogonalLoop=1;jettySize=auto;html=1;endArrow=oval;endFill=0;sketch=0;sourcePerimeterSpacing=0;targetPerimeterSpacing=0;endSize=10;exitX=-0.001;exitY=0.647;exitDx=0;exitDy=0;exitPerimeter=0;" parent="1" source="X-0UwtzgqucG9rMq7sj0-251" target="X-0UwtzgqucG9rMq7sj0-542" edge="1">
                    <mxGeometry relative="1" as="geometry">
                        <mxPoint x="1021" y="185" as="sourcePoint"/>
                    </mxGeometry>
                </mxCell>
                <mxCell id="X-0UwtzgqucG9rMq7sj0-542" value="" style="ellipse;whiteSpace=wrap;html=1;align=center;aspect=fixed;fillColor=none;strokeColor=none;resizable=0;perimeter=centerPerimeter;rotatable=0;allowArrows=0;points=[];outlineConnect=1;rotation=-180;" parent="1" vertex="1">
                    <mxGeometry x="996" y="180" width="10" height="10" as="geometry"/>
                </mxCell>
                <mxCell id="X-0UwtzgqucG9rMq7sj0-543" value="" style="endArrow=none;html=1;rounded=0;exitX=1.001;exitY=0.316;exitDx=0;exitDy=0;exitPerimeter=0;" parent="1" edge="1">
                    <mxGeometry width="50" height="50" relative="1" as="geometry">
                        <mxPoint x="221.1020000000001" y="587.596" as="sourcePoint"/>
                        <mxPoint x="530" y="332" as="targetPoint"/>
                        <Array as="points">
                            <mxPoint x="530" y="587"/>
                        </Array>
                    </mxGeometry>
                </mxCell>
                <mxCell id="X-0UwtzgqucG9rMq7sj0-501" value="&lt;div style=&quot;font-size: 1px&quot;&gt;&lt;font style=&quot;font-size:11.29px;font-family:Arial;color:#000000;direction:ltr;letter-spacing:0px;line-height:120%;opacity:1&quot;&gt;H&lt;/font&gt;&lt;/div&gt;&lt;div style=&quot;font-size: 1px&quot;&gt;&lt;font style=&quot;font-size:11.29px;font-family:Arial;color:#000000;direction:ltr;letter-spacing:0px;line-height:120%;opacity:1&quot;&gt;B&lt;/font&gt;&lt;/div&gt;&lt;div style=&quot;font-size: 1px&quot;&gt;&lt;font style=&quot;font-size:11.29px;font-family:Arial;color:#000000;direction:ltr;letter-spacing:0px;line-height:120%;opacity:1&quot;&gt;A&lt;/font&gt;&lt;/div&gt;" style="text;vsdxID=400;rotation=359.95;fillColor=none;gradientColor=none;edgeStyle=none;strokeColor=none;spacingTop=-3;spacingBottom=-3;spacingLeft=-2;spacingRight=-2;points=[];labelBackgroundColor=#ffffff;rounded=0;html=1;whiteSpace=wrap;verticalAlign=middle;align=center;overflow=width;;html=1;" parent="1" vertex="1">
                    <mxGeometry x="258" y="543" width="61.81" height="61.81" as="geometry"/>
                </mxCell>
                <mxCell id="X-0UwtzgqucG9rMq7sj0-502" value="&lt;div style=&quot;font-size: 1px&quot;&gt;&lt;font style=&quot;font-size:11.29px;font-family:Arial;color:#000000;direction:ltr;letter-spacing:0px;line-height:120%;opacity:1&quot;&gt;SM(C)&lt;/font&gt;&lt;/div&gt;&lt;div style=&quot;font-size: 1px&quot;&gt;&lt;font style=&quot;font-size:11.29px;font-family:Arial;color:#000000;direction:ltr;letter-spacing:0px;line-height:120%;opacity:1&quot;&gt;-B&lt;br&gt;&lt;/font&gt;&lt;/div&gt;" style="text;vsdxID=400;rotation=359.95;fillColor=none;gradientColor=none;edgeStyle=none;strokeColor=none;spacingTop=-3;spacingBottom=-3;spacingLeft=-2;spacingRight=-2;points=[];labelBackgroundColor=#ffffff;rounded=0;html=1;whiteSpace=wrap;verticalAlign=middle;align=center;overflow=width;;html=1;" parent="1" vertex="1">
                    <mxGeometry x="248" y="297" width="61.81" height="64" as="geometry"/>
                </mxCell>
                <UserObject label="&lt;div style=&quot;font-size: 1px&quot;&gt;&lt;font style=&quot;font-size:14.11px;font-family:Arial;color:#000000;direction:ltr;letter-spacing:0px;line-height:120%;opacity:1&quot;&gt;Frontend des Registrierungs-Dienst&lt;/font&gt;&lt;/div&gt;" tags="Hintergrund" id="X-0UwtzgqucG9rMq7sj0-545">
                    <mxCell style="verticalAlign=middle;align=center;overflow=width;vsdxID=263;fillColor=#ebf1df;gradientColor=none;shape=stencil(nZBLDoAgDERP0z3SIyjew0SURgSD+Lu9kMZoXLhwN9O+tukAlrNpJg1SzDH4QW/URgNYgZTkjA4UkwJUgGXng+6DX1zLfmoymdXo17xh5zmRJ6Q42BWCfc2oJfdAr+Yv+AP9Cb7OJ3H/2JG1HNGz/84klThPVCc=);strokeColor=#000000;strokeWidth=2;spacingTop=-1;spacingBottom=-1;spacingLeft=-1;spacingRight=-1;points=[[0.5,0,0],[1,0.5,0],[0.5,0.5,0],[0.5,0.5,0]];labelBackgroundColor=none;rounded=0;html=1;whiteSpace=wrap;" parent="1" vertex="1">
                        <mxGeometry x="118" y="217" width="102" height="59" as="geometry"/>
                    </mxCell>
                </UserObject>
                <mxCell id="X-0UwtzgqucG9rMq7sj0-546" value="" style="endArrow=none;html=1;rounded=0;entryX=-0.007;entryY=0.476;entryDx=0;entryDy=0;entryPerimeter=0;" parent="1" target="X-0UwtzgqucG9rMq7sj0-545" edge="1">
                    <mxGeometry width="50" height="50" relative="1" as="geometry">
                        <mxPoint x="100" y="340" as="sourcePoint"/>
                        <mxPoint x="110" y="250" as="targetPoint"/>
                        <Array as="points">
                            <mxPoint x="100" y="245"/>
                        </Array>
                    </mxGeometry>
                </mxCell>
                <mxCell id="X-0UwtzgqucG9rMq7sj0-547" value="" style="rounded=0;orthogonalLoop=1;jettySize=auto;html=1;endArrow=halfCircle;endFill=0;endSize=6;strokeWidth=1;sketch=0;exitX=1;exitY=0.5;exitDx=0;exitDy=0;exitPerimeter=0;" parent="1" source="X-0UwtzgqucG9rMq7sj0-545" target="X-0UwtzgqucG9rMq7sj0-549" edge="1">
                    <mxGeometry relative="1" as="geometry">
                        <mxPoint x="553" y="501" as="sourcePoint"/>
                        <Array as="points">
                            <mxPoint x="510" y="247"/>
                            <mxPoint x="510" y="505"/>
                        </Array>
                    </mxGeometry>
                </mxCell>
                <mxCell id="X-0UwtzgqucG9rMq7sj0-548" value="" style="rounded=0;orthogonalLoop=1;jettySize=auto;html=1;endArrow=oval;endFill=0;sketch=0;sourcePerimeterSpacing=0;targetPerimeterSpacing=0;endSize=10;exitX=-0.003;exitY=0.411;exitDx=0;exitDy=0;exitPerimeter=0;" parent="1" source="X-0UwtzgqucG9rMq7sj0-11" target="X-0UwtzgqucG9rMq7sj0-549" edge="1">
                    <mxGeometry relative="1" as="geometry">
                        <mxPoint x="593" y="501" as="sourcePoint"/>
                    </mxGeometry>
                </mxCell>
                <mxCell id="X-0UwtzgqucG9rMq7sj0-549" value="" style="ellipse;whiteSpace=wrap;html=1;align=center;aspect=fixed;fillColor=none;strokeColor=none;resizable=0;perimeter=centerPerimeter;rotatable=0;allowArrows=0;points=[];outlineConnect=1;rotation=-180;" parent="1" vertex="1">
                    <mxGeometry x="566" y="500" width="10" height="10" as="geometry"/>
                </mxCell>
                <mxCell id="X-0UwtzgqucG9rMq7sj0-551" value="" style="rounded=0;orthogonalLoop=1;jettySize=auto;html=1;endArrow=halfCircle;endFill=0;endSize=6;strokeWidth=1;sketch=0;exitX=0.997;exitY=0.751;exitDx=0;exitDy=0;exitPerimeter=0;" parent="1" source="X-0UwtzgqucG9rMq7sj0-545" target="X-0UwtzgqucG9rMq7sj0-553" edge="1">
                    <mxGeometry relative="1" as="geometry">
                        <mxPoint x="355" y="797" as="sourcePoint"/>
                        <Array as="points">
                            <mxPoint x="340" y="260"/>
                        </Array>
                    </mxGeometry>
                </mxCell>
                <mxCell id="X-0UwtzgqucG9rMq7sj0-552" value="" style="rounded=0;orthogonalLoop=1;jettySize=auto;html=1;endArrow=oval;endFill=0;sketch=0;sourcePerimeterSpacing=0;targetPerimeterSpacing=0;endSize=10;" parent="1" target="X-0UwtzgqucG9rMq7sj0-553" edge="1">
                    <mxGeometry relative="1" as="geometry">
                        <mxPoint x="346" y="837" as="sourcePoint"/>
                    </mxGeometry>
                </mxCell>
                <mxCell id="X-0UwtzgqucG9rMq7sj0-553" value="" style="ellipse;whiteSpace=wrap;html=1;align=center;aspect=fixed;fillColor=none;strokeColor=none;resizable=0;perimeter=centerPerimeter;rotatable=0;allowArrows=0;points=[];outlineConnect=1;rotation=-90;container=0;" parent="1" vertex="1">
                    <mxGeometry x="340" y="805" width="10" height="10" as="geometry"/>
                </mxCell>
                <mxCell id="X-0UwtzgqucG9rMq7sj0-556" value="" style="ellipse;whiteSpace=wrap;html=1;align=center;aspect=fixed;fillColor=none;strokeColor=none;resizable=0;perimeter=centerPerimeter;rotatable=0;allowArrows=0;points=[];outlineConnect=1;rotation=-180;labelBackgroundColor=#FFFFFF;" parent="1" vertex="1">
                    <mxGeometry x="575" y="560" width="10" height="10" as="geometry"/>
                </mxCell>
                <UserObject label="&lt;div style=&quot;font-size: 1px&quot;&gt;&lt;font style=&quot;font-size:14.11px;font-family:Arial;color:#000000;direction:ltr;letter-spacing:0px;line-height:120%;opacity:1&quot;&gt;KIM-Client&lt;br&gt;&lt;/font&gt;&lt;/div&gt;&lt;div style=&quot;&quot;&gt;&lt;font style=&quot;font-family: Arial; color: rgb(0, 0, 0); direction: ltr; letter-spacing: 0px; line-height: 120%; opacity: 1; font-size: 13px;&quot;&gt;(Optional)&lt;/font&gt;&lt;/div&gt;" tags="Hintergrund" id="X-0UwtzgqucG9rMq7sj0-559">
                    <mxCell style="verticalAlign=middle;align=center;overflow=width;vsdxID=350;fillColor=#f2f2f2;gradientColor=none;shape=stencil(nZBLDoAgDERP0z3SIyjew0SURgSD+Lu9kMZoXLhwN9O+tukAlrNpJg1SzDH4QW/URgNYgZTkjA4UkwJUgGXng+6DX1zLfmoymdXo17xh5zmRJ6Q42BWCfc2oJfdAr+Yv+AP9Cb7OJ3H/2JG1HNGz/84klThPVCc=);strokeColor=#000000;strokeWidth=2;spacingTop=-1;spacingBottom=-1;spacingLeft=-1;spacingRight=-1;points=[[0.5,0,0],[1,0.5,0],[0.5,0.5,0],[0.5,0.5,0]];labelBackgroundColor=none;rounded=0;html=1;whiteSpace=wrap;" parent="1" vertex="1">
                        <mxGeometry x="914" y="494.5" width="133" height="32" as="geometry"/>
                    </mxCell>
                </UserObject>
                <UserObject label="&lt;div style=&quot;font-size: 1px&quot;&gt;&lt;font style=&quot;font-size:14.11px;font-family:Arial;color:#000000;direction:ltr;letter-spacing:0px;line-height:120%;opacity:1&quot;&gt;KIM-Fachdienst&lt;/font&gt;&lt;/div&gt;&lt;div style=&quot;font-size: 1px&quot;&gt;&lt;font style=&quot;font-size:14.11px;font-family:Arial;color:#000000;direction:ltr;letter-spacing:0px;line-height:120%;opacity:1&quot;&gt;(Optional)&lt;/font&gt;&lt;/div&gt;" tags="Hintergrund" id="X-0UwtzgqucG9rMq7sj0-560">
                    <mxCell style="verticalAlign=middle;align=center;overflow=width;vsdxID=350;fillColor=#f2f2f2;gradientColor=none;shape=stencil(nZBLDoAgDERP0z3SIyjew0SURgSD+Lu9kMZoXLhwN9O+tukAlrNpJg1SzDH4QW/URgNYgZTkjA4UkwJUgGXng+6DX1zLfmoymdXo17xh5zmRJ6Q42BWCfc2oJfdAr+Yv+AP9Cb7OJ3H/2JG1HNGz/84klThPVCc=);strokeColor=#000000;strokeWidth=2;spacingTop=-1;spacingBottom=-1;spacingLeft=-1;spacingRight=-1;points=[[0.5,0,0],[1,0.5,0],[0.5,0.5,0],[0.5,0.5,0]];labelBackgroundColor=none;rounded=0;html=1;whiteSpace=wrap;" parent="1" vertex="1">
                        <mxGeometry x="1100" y="494" width="158" height="45" as="geometry"/>
                    </mxCell>
                </UserObject>
                <mxCell id="X-0UwtzgqucG9rMq7sj0-561" value="" style="rounded=0;orthogonalLoop=1;jettySize=auto;html=1;endArrow=halfCircle;endFill=0;endSize=6;strokeWidth=1;sketch=0;exitX=1;exitY=0.5;exitDx=0;exitDy=0;exitPerimeter=0;" parent="1" source="X-0UwtzgqucG9rMq7sj0-11" target="X-0UwtzgqucG9rMq7sj0-563" edge="1">
                    <mxGeometry relative="1" as="geometry">
                        <mxPoint x="856" y="511" as="sourcePoint"/>
                    </mxGeometry>
                </mxCell>
                <mxCell id="X-0UwtzgqucG9rMq7sj0-562" value="" style="rounded=0;orthogonalLoop=1;jettySize=auto;html=1;endArrow=oval;endFill=0;sketch=0;sourcePerimeterSpacing=0;targetPerimeterSpacing=0;endSize=10;exitX=-0.005;exitY=0.487;exitDx=0;exitDy=0;exitPerimeter=0;" parent="1" source="X-0UwtzgqucG9rMq7sj0-559" target="X-0UwtzgqucG9rMq7sj0-563" edge="1">
                    <mxGeometry relative="1" as="geometry">
                        <mxPoint x="896" y="511" as="sourcePoint"/>
                    </mxGeometry>
                </mxCell>
                <mxCell id="X-0UwtzgqucG9rMq7sj0-563" value="" style="ellipse;whiteSpace=wrap;html=1;align=center;aspect=fixed;fillColor=none;strokeColor=none;resizable=0;perimeter=centerPerimeter;rotatable=0;allowArrows=0;points=[];outlineConnect=1;rotation=-180;" parent="1" vertex="1">
                    <mxGeometry x="871" y="506" width="10" height="10" as="geometry"/>
                </mxCell>
                <mxCell id="X-0UwtzgqucG9rMq7sj0-564" value="" style="rounded=0;orthogonalLoop=1;jettySize=auto;html=1;endArrow=halfCircle;endFill=0;endSize=6;strokeWidth=1;sketch=0;exitX=1;exitY=0.5;exitDx=0;exitDy=0;exitPerimeter=0;" parent="1" source="X-0UwtzgqucG9rMq7sj0-559" target="X-0UwtzgqucG9rMq7sj0-566" edge="1">
                    <mxGeometry relative="1" as="geometry">
                        <mxPoint x="1050" y="511" as="sourcePoint"/>
                    </mxGeometry>
                </mxCell>
                <mxCell id="X-0UwtzgqucG9rMq7sj0-565" value="" style="rounded=0;orthogonalLoop=1;jettySize=auto;html=1;endArrow=oval;endFill=0;sketch=0;sourcePerimeterSpacing=0;targetPerimeterSpacing=0;endSize=10;exitX=0;exitY=0.389;exitDx=0;exitDy=0;exitPerimeter=0;" parent="1" source="X-0UwtzgqucG9rMq7sj0-560" target="X-0UwtzgqucG9rMq7sj0-566" edge="1">
                    <mxGeometry relative="1" as="geometry">
                        <mxPoint x="1090" y="511" as="sourcePoint"/>
                    </mxGeometry>
                </mxCell>
                <mxCell id="X-0UwtzgqucG9rMq7sj0-566" value="" style="ellipse;whiteSpace=wrap;html=1;align=center;aspect=fixed;fillColor=none;strokeColor=none;resizable=0;perimeter=centerPerimeter;rotatable=0;allowArrows=0;points=[];outlineConnect=1;rotation=-180;" parent="1" vertex="1">
                    <mxGeometry x="1087" y="506" width="10" height="10" as="geometry"/>
                </mxCell>
                <mxCell id="X-0UwtzgqucG9rMq7sj0-568" value="&lt;div style=&quot;font-size: 1px&quot;&gt;&lt;font style=&quot;font-size:11.29px;font-family:Arial;color:#000000;direction:ltr;letter-spacing:0px;line-height:120%;opacity:1&quot;&gt;SM(C)&lt;/font&gt;&lt;/div&gt;&lt;div style=&quot;font-size: 1px&quot;&gt;&lt;font style=&quot;font-size:11.29px;font-family:Arial;color:#000000;direction:ltr;letter-spacing:0px;line-height:120%;opacity:1&quot;&gt;-B&lt;br&gt;&lt;/font&gt;&lt;/div&gt;" style="text;vsdxID=400;rotation=359.95;fillColor=none;gradientColor=none;edgeStyle=none;strokeColor=none;spacingTop=-3;spacingBottom=-3;spacingLeft=-2;spacingRight=-2;points=[];labelBackgroundColor=#ffffff;rounded=0;html=1;whiteSpace=wrap;verticalAlign=middle;align=center;overflow=width;;html=1;" parent="1" vertex="1">
                    <mxGeometry x="238.19" y="239" width="61.81" height="64" as="geometry"/>
                </mxCell>
                <mxCell id="X-0UwtzgqucG9rMq7sj0-569" value="" style="rounded=0;orthogonalLoop=1;jettySize=auto;html=1;endArrow=halfCircle;endFill=0;endSize=6;strokeWidth=1;sketch=0;exitX=-0.007;exitY=0.859;exitDx=0;exitDy=0;exitPerimeter=0;" parent="1" source="X-0UwtzgqucG9rMq7sj0-13" target="X-0UwtzgqucG9rMq7sj0-571" edge="1">
                    <mxGeometry relative="1" as="geometry">
                        <mxPoint x="1140" y="920" as="sourcePoint"/>
                    </mxGeometry>
                </mxCell>
                <mxCell id="X-0UwtzgqucG9rMq7sj0-570" value="" style="rounded=0;orthogonalLoop=1;jettySize=auto;html=1;endArrow=oval;endFill=0;sketch=0;sourcePerimeterSpacing=0;targetPerimeterSpacing=0;endSize=10;exitX=0.974;exitY=0.388;exitDx=0;exitDy=0;exitPerimeter=0;" parent="1" source="X-0UwtzgqucG9rMq7sj0-331" target="X-0UwtzgqucG9rMq7sj0-571" edge="1">
                    <mxGeometry relative="1" as="geometry">
                        <mxPoint x="1100" y="920" as="sourcePoint"/>
                    </mxGeometry>
                </mxCell>
                <mxCell id="X-0UwtzgqucG9rMq7sj0-571" value="" style="ellipse;whiteSpace=wrap;html=1;align=center;aspect=fixed;fillColor=none;strokeColor=none;resizable=0;perimeter=centerPerimeter;rotatable=0;allowArrows=0;points=[];outlineConnect=1;" parent="1" vertex="1">
                    <mxGeometry x="1115" y="915" width="10" height="10" as="geometry"/>
                </mxCell>
                <mxCell id="X-0UwtzgqucG9rMq7sj0-572" value="" style="rounded=0;orthogonalLoop=1;jettySize=auto;html=1;endArrow=halfCircle;endFill=0;endSize=6;strokeWidth=1;sketch=0;exitX=-0.002;exitY=0.293;exitDx=0;exitDy=0;exitPerimeter=0;" parent="1" source="X-0UwtzgqucG9rMq7sj0-13" target="X-0UwtzgqucG9rMq7sj0-574" edge="1">
                    <mxGeometry relative="1" as="geometry">
                        <mxPoint x="1137" y="610" as="sourcePoint"/>
                    </mxGeometry>
                </mxCell>
                <mxCell id="X-0UwtzgqucG9rMq7sj0-573" value="" style="rounded=0;orthogonalLoop=1;jettySize=auto;html=1;endArrow=oval;endFill=0;sketch=0;sourcePerimeterSpacing=0;targetPerimeterSpacing=0;endSize=10;exitX=0.968;exitY=0.362;exitDx=0;exitDy=0;exitPerimeter=0;" parent="1" source="X-0UwtzgqucG9rMq7sj0-57" target="X-0UwtzgqucG9rMq7sj0-574" edge="1">
                    <mxGeometry relative="1" as="geometry">
                        <mxPoint x="1097" y="610" as="sourcePoint"/>
                    </mxGeometry>
                </mxCell>
                <mxCell id="X-0UwtzgqucG9rMq7sj0-574" value="" style="ellipse;whiteSpace=wrap;html=1;align=center;aspect=fixed;fillColor=none;strokeColor=none;resizable=0;perimeter=centerPerimeter;rotatable=0;allowArrows=0;points=[];outlineConnect=1;" parent="1" vertex="1">
                    <mxGeometry x="1112" y="605" width="10" height="10" as="geometry"/>
                </mxCell>
            </root>
        </mxGraphModel>
    </diagram>
</mxfile>